<svg width="1280" height="720" xmlns="http://www.w3.org/2000/svg" xmlns:xlink="http://www.w3.org/1999/xlink" overflow="hidden"><defs><clipPath id="clip0"><rect x="0" y="0" width="1280" height="720"/></clipPath></defs><g clip-path="url(#clip0)"><rect x="0" y="0" width="1280" height="720" fill="#FFFFFF"/><rect x="418.5" y="609.5" width="459" height="75" stroke="#000000" stroke-width="1.33333" stroke-miterlimit="8" stroke-dasharray="4 1.33333" fill="#D9D9D9"/><rect x="721.5" y="265.5" width="343" height="87" stroke="#000000" stroke-width="1.33333" stroke-miterlimit="8" stroke-dasharray="4 1.33333" fill="#D9D9D9"/><path d="M23 91.5C23 76.3122 35.3122 64 50.5 64L160.5 64C175.688 64 188 76.3122 188 91.5L188 91.5C188 106.688 175.688 119 160.5 119L50.5 119C35.3122 119 23 106.688 23 91.5Z" fill="#1C819E" fill-rule="evenodd"/><text fill="#FFFFFF" font-family="Segoe UI,Segoe UI_MSFontService,sans-serif" font-weight="700" font-size="19" transform="translate(50.423 86)">Annotation <tspan font-size="19" x="24.42" y="23">tables</tspan></text><path d="M1-3.52242e-06 1.00008 23.1387-0.999918 23.1387-1 3.52242e-06ZM4.00008 21.8053 0.000104987 29.8054-3.99992 21.8054Z" fill="#404040" transform="matrix(1.83697e-16 1 1 -1.83697e-16 192 91.0001)"/><rect x="418" y="163" width="234" height="55" fill="#7F7F7F"/><text fill="#FFD966" font-family="Segoe UI,Segoe UI_MSFontService,sans-serif" font-weight="300" font-size="19" transform="translate(441.512 186)">Attribute Selection:<tspan font-weight="700" font-size="19" x="42.2267" y="23">SubsetEval</tspan></text><rect x="231" y="64" width="138" height="55" fill="#7F7F7F"/><rect x="234" y="69" width="135" height="45" fill="#7F7F7F"/><text fill="#FFD966" font-family="Segoe UI,Segoe UI_MSFontService,sans-serif" font-weight="700" font-size="19" transform="translate(281.068 87)">Pre<tspan font-size="19" x="31.46" y="0">-</tspan><tspan font-size="19" x="-39.2467" y="23">processing 1</tspan></text><rect x="419" y="504" width="233" height="55" fill="#7F7F7F"/><rect x="231" y="159" width="138" height="54" fill="#7F7F7F"/><rect x="916" y="274" width="137" height="50" fill="#7F7F7F"/><rect x="938" y="286" width="105" height="22" fill="#7F7F7F"/><text fill="#FFD966" font-family="Segoe UI,Segoe UI_MSFontService,sans-serif" font-weight="700" font-size="19" transform="translate(940.569 304)">Evaluation</text><path d="M1-3.52242e-06 1.00008 23.1387-0.999918 23.1387-1 3.52242e-06ZM4.00008 21.8053 0.000104987 29.8054-3.99992 21.8054Z" fill="#404040" transform="matrix(1.83697e-16 1 1 -1.83697e-16 668 309)"/><path d="M1-3.52242e-06 1.00008 23.1387-0.999918 23.1387-1 3.52242e-06ZM4.00008 21.8053 0.000104987 29.8054-3.99992 21.8054Z" fill="#404040" transform="matrix(1.83697e-16 1 1 -1.83697e-16 380 187)"/><path d="M4.43033e-06-1 17.0307-0.999924 17.0307 1.00008-4.43033e-06 1ZM15.6973-3.99993 23.6973 0.000104987 15.6973 4.00007Z" fill="#404040" transform="matrix(6.12323e-17 1 1 -6.12323e-17 535 232)"/><path d="M991.4 375 991.4 424.049 670.666 424.04 670.666 422.04 990.4 422.049 989.4 423.049 989.4 375ZM671.976 427.048 664 423 672.024 419.049Z" fill="#404040"/><rect x="418" y="392" width="234" height="68" fill="#7F7F7F"/><rect x="730" y="274" width="138" height="65" fill="#7F7F7F"/><rect x="729" y="275" width="139" height="68" fill="#7F7F7F"/><text fill="#FFD966" font-family="Segoe UI,Segoe UI_MSFontService,sans-serif" font-weight="700" font-size="19" transform="translate(759.635 293)">Random <tspan font-size="19" x="9.26666" y="23">Forest </tspan><tspan font-size="19" x="-5" y="45">Classifier</tspan></text><path d="M1-3.52242e-06 1.00008 23.1387-0.999918 23.1387-1 3.52242e-06ZM4.00008 21.8053 0.000104987 29.8054-3.99992 21.8054Z" fill="#404040" transform="matrix(1.83697e-16 1 1 -1.83697e-16 877 297)"/><text font-family="Segoe UI,Segoe UI_MSFontService,sans-serif" font-weight="700" font-size="15" transform="translate(922.729 345)">Cross<tspan font-size="15" x="43.5" y="0">-</tspan><tspan font-size="15" x="51.3333" y="0">validation</tspan></text><path d="M4.43033e-06-1 17.0307-0.999924 17.0307 1.00008-4.43033e-06 1ZM15.6973-3.99993 23.6973 0.000104987 15.6973 4.00007Z" fill="#404040" transform="matrix(6.12323e-17 1 1 -6.12323e-17 535 472)"/><rect x="234" y="162" width="135" height="46" fill="#7F7F7F"/><text fill="#FFD966" font-family="Segoe UI,Segoe UI_MSFontService,sans-serif" font-weight="700" font-size="19" transform="translate(281.068 180)">Pre<tspan font-size="19" x="31.46" y="0">-</tspan><tspan font-size="19" x="-40.7467" y="23">processing 2</tspan></text><rect x="419" y="268" width="233" height="82" fill="#7F7F7F"/><text fill="#FFD966" font-family="Segoe UI,Segoe UI_MSFontService,sans-serif" font-weight="700" font-size="19" transform="translate(438.616 293)">Parameter Selection<tspan fill="#FFFFFF" font-weight="300" font-size="16" x="-3.46667" y="20">threshold_list</tspan><tspan fill="#FFFFFF" font-weight="300" font-size="16" x="91.88" y="20">= [ 0, 1, 2, … , n]</tspan><tspan fill="#FFFFFF" font-weight="300" font-size="16" x="-6.71332" y="39">nr_features_list</tspan><tspan fill="#FFFFFF" font-weight="300" font-size="16" x="95.1333" y="39">= [ 0, 1, 2, … , n</tspan><tspan fill="#FFFFFF" font-weight="300" font-size="16" x="195.467" y="39">]</tspan></text><path d="M1-3.52242e-06 1.00008 23.1387-0.999918 23.1387-1 3.52242e-06ZM4.00008 21.8053 0.000104987 29.8054-3.99992 21.8054Z" fill="#404040" transform="matrix(1.83697e-16 1 1 -1.83697e-16 668 530)"/><path d="M453 650.5C453 635.312 465.312 623 480.5 623L590.5 623C605.688 623 618 635.312 618 650.5L618 650.5C618 665.688 605.688 678 590.5 678L480.5 678C465.312 678 453 665.688 453 650.5Z" fill="#1C819E" fill-rule="evenodd"/><text fill="#FFFFFF" font-family="Segoe UI,Segoe UI_MSFontService,sans-serif" font-weight="700" font-size="19" transform="translate(494.452 646)">Selected <tspan font-size="19" x="2.01999" y="23">features</tspan></text><path d="M683 650.5C683 635.312 695.312 623 710.5 623L820.5 623C835.688 623 848 635.312 848 650.5L848 650.5C848 665.688 835.688 678 820.5 678L710.5 678C695.312 678 683 665.688 683 650.5Z" fill="#1C819E" fill-rule="evenodd"/><text fill="#FFFFFF" font-family="Segoe UI,Segoe UI_MSFontService,sans-serif" font-weight="700" font-size="19" transform="translate(717.886 646)">Evaluation <tspan font-size="19" x="14.9133" y="23">metrics</tspan></text><path d="M991.4 597 991.4 646.049 862.667 646.04 862.667 644.04 990.4 644.049 989.4 645.049 989.4 597ZM863.976 649.048 856 645 864.024 641.049Z" fill="#404040"/><rect x="721.5" y="483.5" width="343" height="87" stroke="#000000" stroke-width="1.33333" stroke-miterlimit="8" stroke-dasharray="4 1.33333" fill="#D9D9D9"/><rect x="916" y="492" width="137" height="50" fill="#7F7F7F"/><rect x="938" y="503" width="105" height="23" fill="#7F7F7F"/><text fill="#FFD966" font-family="Segoe UI,Segoe UI_MSFontService,sans-serif" font-weight="700" font-size="19" transform="translate(940.569 521)">Evaluation</text><rect x="730" y="492" width="138" height="65" fill="#7F7F7F"/><rect x="729" y="493" width="139" height="68" fill="#7F7F7F"/><text fill="#FFD966" font-family="Segoe UI,Segoe UI_MSFontService,sans-serif" font-weight="700" font-size="19" transform="translate(759.635 511)">Random <tspan font-size="19" x="9.26666" y="23">Forest </tspan><tspan font-size="19" x="-5" y="45">Classifier</tspan></text><path d="M1-3.52242e-06 1.00008 23.1387-0.999918 23.1387-1 3.52242e-06ZM4.00008 21.8053 0.000104987 29.8054-3.99992 21.8054Z" fill="#404040" transform="matrix(1.83697e-16 1 1 -1.83697e-16 877 514)"/><text font-family="Segoe UI,Segoe UI_MSFontService,sans-serif" font-weight="700" font-size="15" transform="translate(922.729 563)">Cross<tspan font-size="15" x="43.5" y="0">-</tspan><tspan font-size="15" x="51.3334" y="0">validation</tspan><tspan fill="#FFD966" font-weight="300" font-size="19" x="-481.217" y="-35">Attribute Selection: </tspan><tspan fill="#FFD966" font-size="19" x="-428.237" y="-12">InfoGain</tspan></text><path d="M2.18723e-06-1 41.3333-0.99991 41.3333 1.00009-2.18723e-06 1ZM40-3.99991 48 0.000104987 40 4.00009Z" fill="#404040" transform="matrix(6.12323e-17 1 1 -6.12323e-17 535 574)"/><text fill="#7F7F7F" font-family="Segoe UI,Segoe UI_MSFontService,sans-serif" font-weight="700" font-size="19" transform="translate(419.289 606)">END<tspan font-size="19" x="-376.905" y="-547">START</tspan><tspan fill="#000000" font-family="Calibri,Calibri_MSFontService,sans-serif" font-weight="400" font-size="24" x="225.835" y="52">+</tspan></text><path d="M4.43033e-06-1 17.0307-0.999924 17.0307 1.00008-4.43033e-06 1ZM15.6973-3.99993 23.6973 0.000104987 15.6973 4.00007Z" fill="#404040" transform="matrix(6.12323e-17 1 1 -6.12323e-17 299 129)"/><text fill="#FFFFFF" font-family="Segoe UI,Segoe UI_MSFontService,sans-serif" font-weight="700" font-size="16" transform="translate(466.166 413)">Best parameters<tspan font-weight="300" font-size="15" x="14.58" y="17">threshold = X</tspan><tspan font-weight="300" font-size="15" x="7.66" y="35">nr_features</tspan><tspan font-weight="300" font-size="15" x="102.993" y="35">= Y</tspan></text></g></svg>