<?xml version="1.0" encoding="UTF-8" standalone="no"?>
<svg
   xmlns:dc="http://purl.org/dc/elements/1.1/"
   xmlns:cc="http://creativecommons.org/ns#"
   xmlns:rdf="http://www.w3.org/1999/02/22-rdf-syntax-ns#"
   xmlns:svg="http://www.w3.org/2000/svg"
   xmlns="http://www.w3.org/2000/svg"
   xmlns:sodipodi="http://sodipodi.sourceforge.net/DTD/sodipodi-0.dtd"
   xmlns:inkscape="http://www.inkscape.org/namespaces/inkscape"
   width="231.41466mm"
   height="143.46964mm"
   viewBox="0 0 231.41466 143.46964"
   version="1.1"
   id="svg177"
   inkscape:export-filename="C:\Users\Sandra\OneDrive - Universidade de Lisboa\PhD_Research\2_Chapter2_Flavobacteriaceae\flavobacteriaceae_project\4_Figures\SF5\SF5.png"
   inkscape:export-xdpi="300"
   inkscape:export-ydpi="300"
   inkscape:version="1.0.1 (3bc2e813f5, 2020-09-07)"
   sodipodi:docname="SF5.svg">
  <defs
     id="defs171" />
  <sodipodi:namedview
     id="base"
     pagecolor="#ffffff"
     bordercolor="#666666"
     borderopacity="1.0"
     inkscape:pageopacity="1"
     inkscape:pageshadow="2"
     inkscape:zoom="1.4"
     inkscape:cx="507.83159"
     inkscape:cy="239.096"
     inkscape:document-units="mm"
     inkscape:current-layer="layer1"
     inkscape:document-rotation="0"
     showgrid="false"
     fit-margin-top="2"
     lock-margins="true"
     fit-margin-left="2"
     fit-margin-right="2"
     fit-margin-bottom="2"
     inkscape:window-width="1920"
     inkscape:window-height="1001"
     inkscape:window-x="-9"
     inkscape:window-y="-9"
     inkscape:window-maximized="1" />
  <metadata
     id="metadata174">
    <rdf:RDF>
      <cc:Work
         rdf:about="">
        <dc:format>image/svg+xml</dc:format>
        <dc:type
           rdf:resource="http://purl.org/dc/dcmitype/StillImage" />
        <dc:title></dc:title>
      </cc:Work>
    </rdf:RDF>
  </metadata>
  <g
     inkscape:label="Layer 1"
     inkscape:groupmode="layer"
     id="layer1"
     transform="translate(-6.1280025,-15.511429)">
    <g
       id="g193"
       transform="matrix(0.26458333,0,0,0.26458333,3.1750028,-21.792597)">
      <path
         d="m 345.12,613.59998 h 378.72003 v 61.60003 H 345.12 Z"
         style="fill:#d9d9d9;fill-opacity:1;fill-rule:nonzero;stroke:none"
         id="path195" />
    </g>
    <g
       id="g197"
       transform="matrix(0.26458333,0,0,0.26458333,3.1750028,-21.792597)">
      <path
         d="m 344.64001,675.20001 v -3.35998 h 0.96 v 3.35998 z m 0,-4.48004 v -3.19995 h 0.96 v 3.19995 z m 0,-4.31995 v -3.36004 h 0.96 v 3.36004 z m 0,-4.48004 v -3.20001 h 0.96 v 3.20001 z m 0,-4.32 v -3.35999 h 0.96 v 3.35999 z m 0,-4.47998 v -3.20002 h 0.96 V 653.12 Z m 0,-4.32001 V 645.44 h 0.96 v 3.35999 z m 0,-4.47998 V 641.12 h 0.96 v 3.20001 z m 0,-4.32001 v -3.35999 h 0.96 V 640 Z m 0,-4.47998 v -3.20001 h 0.96 v 3.20001 z m 0,-4.32001 v -3.35998 h 0.96 v 3.35998 z m 0,-4.48004 v -3.19995 h 0.96 v 3.19995 z m 0,-4.31995 v -3.36004 h 0.96 v 3.36004 z m 0,-4.48004 v -3.20001 h 0.96 v 3.20001 z m 0,-4.32 v -0.63996 h 3.68 v 1.12 H 345.12 l 0.48001,-0.48004 v 0 z m 4.79999,-0.63996 h 3.35999 v 1.12 H 349.44 Z m 4.48001,0 H 357.12 v 1.12 h -3.19999 z m 4.31998,0 h 3.36002 v 1.12 h -3.36002 z m 4.48001,0 h 3.20001 v 1.12 H 362.72 Z m 4.32001,0 h 3.35998 v 1.12 h -3.35998 z m 4.47998,0 H 374.72 v 1.12 h -3.20001 z m 4.32001,0 h 3.36001 v 1.12 H 375.84 Z m 4.48001,0 h 3.19998 v 1.12 h -3.19998 z m 4.32,0 H 388 v 1.12 h -3.35999 z m 4.47999,0 h 3.20001 v 1.12 H 389.12 Z m 4.32,0 h 3.35999 v 1.12 H 393.44 Z m 4.48001,0 H 401.12 v 1.12 h -3.19999 z m 4.31998,0 h 3.36002 v 1.12 h -3.36002 z m 4.48001,0 h 3.20001 v 1.12 H 406.72 Z m 4.32001,0 h 3.35998 v 1.12 h -3.35998 z m 4.47998,0 H 418.72 v 1.12 h -3.20001 z m 4.32001,0 h 3.36001 v 1.12 H 419.84 Z m 4.48001,0 h 3.19998 v 1.12 h -3.19998 z m 4.32,0 H 432 v 1.12 h -3.35999 z m 4.47999,0 h 3.20001 v 1.12 H 433.12 Z m 4.32,0 h 3.35999 v 1.12 H 437.44 Z m 4.48001,0 H 445.12 v 1.12 h -3.19999 z m 4.31998,0 h 3.36002 v 1.12 h -3.36002 z m 4.48001,0 h 3.20001 v 1.12 H 450.72 Z m 4.32001,0 h 3.35998 v 1.12 h -3.35998 z m 4.47998,0 H 462.72 v 1.12 h -3.20001 z m 4.32001,0 h 3.36001 v 1.12 H 463.84 Z m 4.48001,0 h 3.19998 v 1.12 h -3.19998 z m 4.32,0 H 476 v 1.12 h -3.35999 z m 4.47999,0 h 3.20001 v 1.12 H 477.12 Z m 4.32,0 h 3.35999 v 1.12 H 481.44 Z m 4.48001,0 H 489.12 v 1.12 h -3.19999 z m 4.31998,0 h 3.36002 v 1.12 h -3.36002 z m 4.48001,0 h 3.20001 v 1.12 H 494.72 Z m 4.32001,0 h 3.35998 v 1.12 h -3.35998 z m 4.47998,0 H 506.72 v 1.12 h -3.20001 z m 4.32001,0 h 3.36001 v 1.12 H 507.84 Z m 4.48001,0 h 3.20001 v 1.12 h -3.20001 z m 4.32,0 H 520 v 1.12 h -3.35999 z m 4.47999,0 h 3.20001 v 1.12 H 521.12 Z m 4.32,0 h 3.35999 v 1.12 H 525.44 Z m 4.47998,0 H 533.12 v 1.12 h -3.20002 z m 4.32001,0 h 3.35999 v 1.12 h -3.35999 z m 4.47998,0 h 3.20001 v 1.12 h -3.20001 z m 4.32001,0 h 3.36004 v 1.12 h -3.36004 z m 4.48004,0 h 3.19995 v 1.12 h -3.19995 z m 4.32001,0 h 3.35998 v 1.12 h -3.35998 z m 4.47998,0 h 3.20001 v 1.12 h -3.20001 z m 4.32,0 H 564 v 1.12 h -3.35999 z m 4.47999,0 h 3.20001 v 1.12 H 565.12 Z m 4.32,0 h 3.35999 v 1.12 H 569.44 Z m 4.47998,0 H 577.12 v 1.12 h -3.20002 z m 4.32001,0 h 3.35999 v 1.12 h -3.35999 z m 4.47998,0 h 3.20001 v 1.12 h -3.20001 z m 4.32001,0 h 3.36004 v 1.12 h -3.36004 z m 4.48004,0 h 3.19995 v 1.12 h -3.19995 z m 4.32001,0 h 3.35998 v 1.12 h -3.35998 z m 4.47998,0 h 3.20001 v 1.12 h -3.20001 z m 4.32,0 H 608 v 1.12 h -3.35999 z m 4.47999,0 h 3.20001 v 1.12 H 609.12 Z m 4.32,0 h 3.35999 v 1.12 H 613.44 Z m 4.47998,0 H 621.12 v 1.12 h -3.20002 z m 4.32001,0 h 3.35999 v 1.12 h -3.35999 z m 4.47998,0 h 3.20001 v 1.12 h -3.20001 z m 4.32001,0 h 3.36004 v 1.12 h -3.36004 z m 4.48004,0 h 3.19995 v 1.12 h -3.19995 z m 4.32001,0 h 3.35998 v 1.12 h -3.35998 z m 4.47998,0 h 3.20001 v 1.12 h -3.20001 z m 4.32,0 H 652 v 1.12 h -3.35999 z m 4.47999,0 h 3.20001 v 1.12 H 653.12 Z m 4.32,0 h 3.35999 v 1.12 H 657.44 Z m 4.47998,0 H 665.12 v 1.12 h -3.20002 z m 4.32001,0 h 3.35999 v 1.12 h -3.35999 z m 4.47998,0 h 3.20001 v 1.12 h -3.20001 z m 4.32001,0 h 3.36004 v 1.12 h -3.36004 z m 4.48004,0 h 3.19995 v 1.12 h -3.19995 z m 4.32001,0 h 3.35998 v 1.12 h -3.35998 z m 4.47998,0 h 3.20001 v 1.12 h -3.20001 z m 4.32,0 H 696 v 1.12 h -3.35999 z m 4.47999,0 h 3.20001 v 1.12 H 697.12 Z m 4.32,0 h 3.35999 v 1.12 H 701.44 Z m 4.47998,0 H 709.12 v 1.12 h -3.20002 z m 4.32001,0 h 3.35999 v 1.12 h -3.35999 z m 4.47998,0 h 3.20001 v 1.12 h -3.20001 z m 4.32001,0 h 3.36004 v 1.12 h -3.36004 z m 4.48004,0 h 0.95996 v 3.51996 h -1.12 v -2.88 l 0.48005,0.48004 h -0.32001 z m 0.95996,4.63996 v 3.20001 h -1.12 v -3.20001 z m 0,4.32 v 3.36005 h -1.12 v -3.36005 z m 0,4.48004 v 3.19996 h -1.12 v -3.19996 z m 0,4.31995 v 3.36005 h -1.12 v -3.36005 z m 0,4.48004 v 3.20001 h -1.12 v -3.20001 z m 0,4.32001 V 642.88 h -1.12 v -3.35998 z m 0,4.47998 v 3.20001 h -1.12 V 644 Z m 0,4.32001 v 3.35998 h -1.12 v -3.35998 z m 0,4.47998 V 656 h -1.12 v -3.20001 z m 0,4.32001 v 3.35998 h -1.12 V 657.12 Z m 0,4.47998 v 3.20001 h -1.12 v -3.20001 z m 0,4.32 v 3.36005 h -1.12 v -3.36005 z m 0,4.48004 v 3.19996 h -1.12 v -3.19996 z m 0,4.31995 v 0.96002 h -3.51996 V 674.56 h 2.88001 l -0.48005,0.64001 v -0.48004 z m -4.63995,0.96002 h -3.20002 V 674.56 h 3.20002 z m -4.32001,0 h -3.36005 V 674.56 h 3.36005 z m -4.48004,0 h -3.19995 V 674.56 h 3.19995 z m -4.32001,0 h -3.35999 V 674.56 h 3.35999 z m -4.47998,0 h -3.20001 V 674.56 h 3.20001 z m -4.32001,0 H 694.56 V 674.56 h 3.35998 z m -4.47998,0 h -3.20001 V 674.56 H 693.44 Z m -4.32,0 h -3.35999 V 674.56 H 689.12 Z m -4.47999,0 H 681.44 V 674.56 h 3.20001 z m -4.32,0 h -3.35999 V 674.56 h 3.35999 z m -4.47998,0 h -3.20002 V 674.56 h 3.20002 z m -4.32001,0 h -3.36005 V 674.56 h 3.36005 z m -4.48004,0 h -3.19995 V 674.56 h 3.19995 z m -4.32001,0 h -3.35999 V 674.56 h 3.35999 z m -4.47998,0 h -3.20001 V 674.56 h 3.20001 z m -4.32001,0 H 650.56 V 674.56 h 3.35998 z m -4.47998,0 h -3.20001 V 674.56 H 649.44 Z m -4.32,0 h -3.35999 V 674.56 H 645.12 Z m -4.47999,0 H 637.44 V 674.56 h 3.20001 z m -4.32,0 h -3.35999 V 674.56 h 3.35999 z m -4.47998,0 h -3.20002 V 674.56 h 3.20002 z m -4.32001,0 h -3.36005 V 674.56 h 3.36005 z m -4.48004,0 h -3.19995 V 674.56 h 3.19995 z m -4.32001,0 h -3.35999 V 674.56 h 3.35999 z m -4.47998,0 h -3.20001 V 674.56 h 3.20001 z m -4.32001,0 H 606.56 V 674.56 h 3.35998 z m -4.47998,0 h -3.20001 V 674.56 H 605.44 Z m -4.32,0 h -3.35999 V 674.56 H 601.12 Z m -4.47999,0 H 593.44 V 674.56 h 3.20001 z m -4.32,0 h -3.35999 V 674.56 h 3.35999 z m -4.47998,0 h -3.20002 V 674.56 h 3.20002 z m -4.32001,0 h -3.36005 V 674.56 h 3.36005 z m -4.48004,0 h -3.19995 V 674.56 h 3.19995 z m -4.32001,0 h -3.35999 V 674.56 h 3.35999 z m -4.47998,0 h -3.20001 V 674.56 h 3.20001 z m -4.32001,0 H 562.56 V 674.56 h 3.35998 z m -4.47998,0 h -3.20001 V 674.56 H 561.44 Z m -4.32,0 h -3.35999 V 674.56 H 557.12 Z m -4.47999,0 H 549.44 V 674.56 h 3.20001 z m -4.32,0 h -3.35999 V 674.56 h 3.35999 z m -4.47998,0 h -3.20002 V 674.56 h 3.20002 z m -4.32001,0 h -3.36005 V 674.56 h 3.36005 z m -4.48004,0 h -3.19995 V 674.56 h 3.19995 z m -4.32001,0 h -3.35999 V 674.56 h 3.35999 z m -4.47998,0 h -3.20001 V 674.56 h 3.20001 z m -4.32001,0 H 518.56 V 674.56 h 3.35998 z m -4.47998,0 h -3.20001 V 674.56 H 517.44 Z m -4.32,0 h -3.35999 V 674.56 H 513.12 Z m -4.47999,0 H 505.44 V 674.56 h 3.20001 z m -4.32,0 h -3.36002 V 674.56 h 3.36002 z m -4.48001,0 h -3.19999 V 674.56 H 499.84 Z m -4.32001,0 H 492.16 V 674.56 h 3.35999 z m -4.47998,0 H 487.84 V 674.56 h 3.20001 z m -4.32001,0 h -3.36001 V 674.56 H 486.72 Z m -4.48001,0 h -3.19998 V 674.56 h 3.19998 z m -4.31998,0 H 474.56 V 674.56 h 3.36001 z m -4.48001,0 h -3.20001 V 674.56 H 473.44 Z m -4.32,0 h -3.35999 V 674.56 H 469.12 Z m -4.47999,0 H 461.44 V 674.56 h 3.20001 z m -4.32,0 h -3.36002 V 674.56 h 3.36002 z m -4.48001,0 h -3.19999 V 674.56 H 455.84 Z m -4.32001,0 H 448.16 V 674.56 h 3.35999 z m -4.47998,0 H 443.84 V 674.56 h 3.20001 z m -4.32001,0 h -3.36001 V 674.56 H 442.72 Z m -4.48001,0 h -3.19998 V 674.56 h 3.19998 z m -4.31998,0 H 430.56 V 674.56 h 3.36001 z m -4.48001,0 h -3.20001 V 674.56 H 429.44 Z m -4.32,0 h -3.35999 V 674.56 H 425.12 Z m -4.47999,0 H 417.44 V 674.56 h 3.20001 z m -4.32,0 h -3.36002 V 674.56 h 3.36002 z m -4.48001,0 h -3.19999 V 674.56 H 411.84 Z m -4.32001,0 H 404.16 V 674.56 h 3.35999 z m -4.47998,0 H 399.84 V 674.56 h 3.20001 z m -4.32001,0 h -3.36001 V 674.56 H 398.72 Z m -4.48001,0 h -3.19998 V 674.56 h 3.19998 z m -4.31998,0 H 386.56 V 674.56 h 3.36001 z m -4.48001,0 h -3.20001 V 674.56 H 385.44 Z m -4.32,0 h -3.35999 V 674.56 H 381.12 Z m -4.47999,0 H 373.44 V 674.56 h 3.20001 z m -4.32,0 h -3.36002 V 674.56 h 3.36002 z m -4.48001,0 h -3.19999 V 674.56 H 367.84 Z m -4.32001,0 H 360.16 V 674.56 h 3.35999 z m -4.47998,0 H 355.84 V 674.56 h 3.20001 z m -4.32001,0 h -3.36001 V 674.56 H 354.72 Z m -4.48001,0 h -3.19998 V 674.56 h 3.19998 z m -4.31998,0 H 345.12 V 674.56 h 0.80001 z"
         style="fill:#000000;fill-opacity:1;fill-rule:nonzero;stroke:none"
         id="path199" />
    </g>
    <g
       id="g201"
       transform="matrix(0.26458333,0,0,0.26458333,3.1750028,-21.792597)">
      <path
         d="m 595.20001,330.07999 h 282.39997 v 71.68002 H 595.20001 Z"
         style="fill:#d9d9d9;fill-opacity:1;fill-rule:nonzero;stroke:none"
         id="path203" />
    </g>
    <g
       id="g205"
       transform="matrix(0.26458333,0,0,0.26458333,3.1750028,-21.792597)">
      <path
         d="m 594.71997,401.76001 v -3.36002 h 1.12006 v 3.36002 z m 0,-4.48001 v -3.20001 h 1.12006 V 397.28 Z m 0,-4.32001 v -3.35998 h 1.12006 v 3.35998 z m 0,-4.47998 V 385.28 h 1.12006 v 3.20001 z m 0,-4.32001 v -3.36001 h 1.12006 V 384.16 Z m 0,-4.48001 v -3.19998 h 1.12006 v 3.19998 z m 0,-4.32 V 372 h 1.12006 v 3.35999 z m 0,-4.47999 v -3.20001 h 1.12006 V 370.88 Z m 0,-4.32 v -3.35999 h 1.12006 V 366.56 Z m 0,-4.48001 V 358.88 h 1.12006 v 3.19999 z m 0,-4.31998 v -3.36002 h 1.12006 v 3.36002 z m 0,-4.48001 v -3.20001 h 1.12006 V 353.28 Z m 0,-4.32001 v -3.35998 h 1.12006 v 3.35998 z m 0,-4.47998 V 341.28 h 1.12006 v 3.20001 z m 0,-4.32001 v -3.36001 h 1.12006 V 340.16 Z m 0,-4.48001 v -3.19998 h 1.12006 v 3.19998 z m 0,-4.32 V 329.44 h 2.56006 v 1.12 h -2.08002 l 0.64002,-0.48001 v 1.28 z m 3.68005,-1.91999 h 3.19996 v 1.12 h -3.19996 z m 4.31995,0 h 3.36005 v 1.12 h -3.36005 z m 4.48004,0 h 3.20001 v 1.12 h -3.20001 z m 4.32001,0 H 614.88 v 1.12 h -3.35998 z m 4.47998,0 h 3.20001 v 1.12 H 616 Z m 4.32001,0 h 3.35998 v 1.12 h -3.35998 z m 4.47998,0 H 628 v 1.12 h -3.20001 z m 4.32001,0 h 3.35998 v 1.12 H 629.12 Z m 4.47998,0 h 3.20001 v 1.12 h -3.20001 z m 4.32,0 h 3.36005 v 1.12 h -3.36005 z m 4.48004,0 h 3.19996 v 1.12 h -3.19996 z m 4.31995,0 h 3.36005 v 1.12 h -3.36005 z m 4.48004,0 h 3.20001 v 1.12 h -3.20001 z m 4.32001,0 H 658.88 v 1.12 h -3.35998 z m 4.47998,0 h 3.20001 v 1.12 H 660 Z m 4.32001,0 h 3.35998 v 1.12 h -3.35998 z m 4.47998,0 H 672 v 1.12 h -3.20001 z m 4.32001,0 h 3.35998 v 1.12 H 673.12 Z m 4.47998,0 h 3.20001 v 1.12 h -3.20001 z m 4.32,0 h 3.36005 v 1.12 h -3.36005 z m 4.48004,0 h 3.19996 v 1.12 h -3.19996 z m 4.31995,0 h 3.36005 v 1.12 h -3.36005 z m 4.48004,0 h 3.20001 v 1.12 h -3.20001 z m 4.32001,0 H 702.88 v 1.12 h -3.35998 z m 4.47998,0 h 3.20001 v 1.12 H 704 Z m 4.32001,0 h 3.35998 v 1.12 h -3.35998 z m 4.47998,0 H 716 v 1.12 h -3.20001 z m 4.32001,0 h 3.35998 v 1.12 H 717.12 Z m 4.47998,0 h 3.20001 v 1.12 h -3.20001 z m 4.32,0 h 3.36005 v 1.12 h -3.36005 z m 4.48004,0 h 3.19996 v 1.12 h -3.19996 z m 4.31995,0 h 3.36005 v 1.12 h -3.36005 z m 4.48004,0 h 3.20001 v 1.12 h -3.20001 z m 4.32001,0 H 746.88 v 1.12 h -3.35998 z m 4.47998,0 h 3.20001 v 1.12 H 748 Z m 4.32001,0 h 3.35998 v 1.12 h -3.35998 z m 4.47998,0 H 760 v 1.12 h -3.20001 z m 4.32001,0 h 3.35998 v 1.12 H 761.12 Z m 4.47998,0 h 3.20001 v 1.12 h -3.20001 z m 4.32,0 h 3.36005 v 1.12 h -3.36005 z m 4.48004,0 h 3.19996 v 1.12 h -3.19996 z m 4.31995,0 h 3.36005 v 1.12 h -3.36005 z m 4.48004,0 h 3.20001 v 1.12 h -3.20001 z m 4.32001,0 H 790.88 v 1.12 h -3.35998 z m 4.47998,0 h 3.20001 v 1.12 H 792 Z m 4.32001,0 h 3.35998 v 1.12 h -3.35998 z m 4.47998,0 H 804 v 1.12 h -3.20001 z m 4.32001,0 h 3.35998 v 1.12 H 805.12 Z m 4.47998,0 h 3.20001 v 1.12 h -3.20001 z m 4.32,0 h 3.36005 v 1.12 h -3.36005 z m 4.48004,0 h 3.19996 v 1.12 h -3.19996 z m 4.31995,0 h 3.36005 v 1.12 h -3.36005 z m 4.48004,0 h 3.20001 v 1.12 h -3.20001 z m 4.32001,0 H 834.88 v 1.12 h -3.35998 z m 4.47998,0 h 3.20001 v 1.12 H 836 Z m 4.32001,0 h 3.35998 v 1.12 h -3.35998 z m 4.47998,0 H 848 v 1.12 h -3.20001 z m 4.32001,0 h 3.35998 v 1.12 H 849.12 Z m 4.47998,0 h 3.20001 v 1.12 h -3.20001 z m 4.32,0 h 3.36005 v 1.12 h -3.36005 z m 4.48004,0 h 3.19996 v 1.12 h -3.19996 z m 4.31995,0 h 3.36005 v 1.12 h -3.36005 z m 4.48004,0 h 3.20001 v 1.12 h -3.20001 z m 4.32001,0 h 2.71997 v 1.76001 H 877.12 v -1.12002 l 0.47998,0.48001 h -2.07996 z m 2.71997,2.88001 v 3.35998 H 877.12 v -3.35998 z m 0,4.47998 V 340 H 877.12 v -3.20001 z m 0,4.32001 v 3.36001 H 877.12 V 341.12 Z m 0,4.48001 v 3.19998 H 877.12 v -3.19998 z m 0,4.32 V 353.28 H 877.12 v -3.35999 z m 0,4.47998 v 3.20002 H 877.12 v -3.20002 z m 0,4.32001 v 3.35999 H 877.12 V 358.72 Z m 0,4.48001 v 3.19998 H 877.12 v -3.19998 z m 0,4.31998 V 370.88 H 877.12 v -3.36001 z m 0,4.48001 v 3.20001 H 877.12 V 372 Z m 0,4.32001 v 3.35998 H 877.12 v -3.35998 z m 0,4.47998 V 384 H 877.12 v -3.20001 z m 0,4.32001 v 3.36001 H 877.12 V 385.12 Z m 0,4.48001 v 3.19998 H 877.12 v -3.19998 z m 0,4.32 V 397.28 H 877.12 v -3.35999 z m 0,4.47998 v 3.20002 H 877.12 v -3.20002 z m -1.59998,3.84 h -3.35998 V 401.28 h 3.35998 z m -4.48004,0 h -3.19995 V 401.28 h 3.19995 z m -4.31994,0 h -3.36005 V 401.28 h 3.36005 z m -4.48005,0 h -3.20001 V 401.28 h 3.20001 z m -4.32,0 h -3.35999 V 401.28 h 3.35999 z m -4.47998,0 h -3.20002 V 401.28 H 854.56 Z m -4.32001,0 H 846.88 V 401.28 h 3.35999 z m -4.47998,0 H 842.56 V 401.28 h 3.20001 z m -4.32001,0 h -3.35998 V 401.28 H 841.44 Z m -4.47998,0 h -3.20001 V 401.28 h 3.20001 z m -4.32001,0 h -3.35998 V 401.28 h 3.35998 z m -4.48004,0 h -3.19995 V 401.28 h 3.19995 z m -4.31994,0 h -3.36005 V 401.28 h 3.36005 z m -4.48005,0 h -3.20001 V 401.28 h 3.20001 z m -4.32,0 h -3.35999 V 401.28 h 3.35999 z m -4.47998,0 h -3.20002 V 401.28 H 810.56 Z m -4.32001,0 H 802.88 V 401.28 h 3.35999 z m -4.47998,0 H 798.56 V 401.28 h 3.20001 z m -4.32001,0 h -3.35998 V 401.28 H 797.44 Z m -4.47998,0 h -3.20001 V 401.28 h 3.20001 z m -4.32001,0 h -3.35998 V 401.28 h 3.35998 z m -4.48004,0 h -3.19995 V 401.28 h 3.19995 z m -4.31994,0 h -3.36005 V 401.28 h 3.36005 z m -4.48005,0 h -3.20001 V 401.28 h 3.20001 z m -4.32,0 h -3.35999 V 401.28 h 3.35999 z m -4.47998,0 h -3.20002 V 401.28 H 766.56 Z m -4.32001,0 H 758.88 V 401.28 h 3.35999 z m -4.47998,0 H 754.56 V 401.28 h 3.20001 z m -4.32001,0 h -3.35998 V 401.28 H 753.44 Z m -4.47998,0 h -3.20001 V 401.28 h 3.20001 z m -4.32001,0 h -3.35998 V 401.28 h 3.35998 z m -4.48004,0 h -3.19995 V 401.28 h 3.19995 z m -4.31994,0 h -3.36005 V 401.28 h 3.36005 z m -4.48005,0 h -3.20001 V 401.28 h 3.20001 z m -4.32,0 h -3.35999 V 401.28 h 3.35999 z m -4.47998,0 h -3.20002 V 401.28 H 722.56 Z m -4.32001,0 H 714.88 V 401.28 h 3.35999 z m -4.47998,0 H 710.56 V 401.28 h 3.20001 z m -4.32001,0 h -3.35998 V 401.28 H 709.44 Z m -4.47998,0 h -3.20001 V 401.28 h 3.20001 z m -4.32001,0 h -3.35998 V 401.28 h 3.35998 z m -4.48004,0 h -3.19995 V 401.28 h 3.19995 z m -4.31994,0 h -3.36005 V 401.28 h 3.36005 z m -4.48005,0 h -3.20001 V 401.28 h 3.20001 z m -4.32,0 h -3.35999 V 401.28 h 3.35999 z m -4.47998,0 h -3.20002 V 401.28 H 678.56 Z m -4.32001,0 H 670.88 V 401.28 h 3.35999 z m -4.47998,0 H 666.56 V 401.28 h 3.20001 z m -4.32001,0 h -3.35998 V 401.28 H 665.44 Z m -4.47998,0 h -3.20001 V 401.28 h 3.20001 z m -4.32001,0 h -3.35998 V 401.28 h 3.35998 z m -4.48004,0 h -3.19995 V 401.28 h 3.19995 z m -4.31994,0 h -3.36005 V 401.28 h 3.36005 z m -4.48005,0 h -3.20001 V 401.28 h 3.20001 z m -4.32,0 h -3.35999 V 401.28 h 3.35999 z m -4.47998,0 h -3.20002 V 401.28 H 634.56 Z m -4.32001,0 H 626.88 V 401.28 h 3.35999 z m -4.47998,0 H 622.56 V 401.28 h 3.20001 z m -4.32001,0 h -3.35998 V 401.28 H 621.44 Z m -4.47998,0 h -3.20001 V 401.28 h 3.20001 z m -4.32001,0 h -3.35998 V 401.28 h 3.35998 z m -4.48004,0 h -3.19995 V 401.28 h 3.19995 z m -4.31994,0 h -3.36005 V 401.28 h 3.36005 z m -4.48005,0 h -3.20001 V 401.28 h 3.20001 z"
         style="fill:#000000;fill-opacity:1;fill-rule:nonzero;stroke:none"
         id="path207" />
    </g>
    <g
       id="g209"
       transform="matrix(0.26458333,0,0,0.26458333,8.1280025,27.525733)">
      <path
         d="M 0,0 C 0,-12.48 10.08,-22.559999 22.559999,-22.559999 H 113.44 C 125.92,-22.559999 136,-12.48 136,0 v 0 c 0,12.48 -10.08,22.559999 -22.56,22.559999 H 22.559999 C 10.08,22.559999 0,12.48 0,0 Z"
         style="fill:#1c819e;fill-opacity:1;fill-rule:evenodd;stroke:none"
         id="path211" />
    </g>
    <g
       id="g213"
       transform="matrix(0.01240234,0,0,0.01240234,3.1750028,-21.792597)">
      <text
         transform="translate(880.64001,3880.96)"
         style="font-variant:normal;font-weight:normal;font-size:327.68px;font-family:F1;-inkscape-font-specification:F1;writing-mode:lr-tb;fill:#ffffff;fill-opacity:1;fill-rule:nonzero;stroke:#ffffff;stroke-width:3.277;stroke-linecap:butt;stroke-linejoin:miter;stroke-miterlimit:10;stroke-dasharray:none;stroke-opacity:1"
         id="text217"><tspan
           x="0 242.4832 455.47519 665.19037 888.01276 1025.6384 1222.2463 1356.5952 1458.176 1674.4448 1887.4368"
           y="0"
           sodipodi:role="line"
           id="tspan215">Annotation</tspan></text>
    </g>
    <g
       id="g219"
       transform="matrix(0.01240234,0,0,0.01240234,3.1750028,-21.792597)">
      <text
         transform="translate(1310.72,4273.4399)"
         style="font-variant:normal;font-weight:normal;font-size:327.68px;font-family:F1;-inkscape-font-specification:F1;writing-mode:lr-tb;fill:#ffffff;fill-opacity:1;fill-rule:nonzero;stroke:#ffffff;stroke-width:3.277;stroke-linecap:butt;stroke-linejoin:miter;stroke-miterlimit:10;stroke-dasharray:none;stroke-opacity:1"
         id="text223"><tspan
           x="0 137.6256 334.23358 557.05597 661.91357 865.0752"
           y="0"
           sodipodi:role="line"
           id="tspan221">tables</tspan></text>
    </g>
    <g
       id="g225"
       transform="matrix(0.26458333,0,0,0.26458333,45.042669,27.737402)">
      <path
         d="M 0,0 H 19.040001 V -1.6 H 0 Z M 17.92,2.56 24.48,-0.8 17.92,-4 Z"
         style="fill:#404040;fill-opacity:1;fill-rule:nonzero;stroke:none"
         id="path227" />
    </g>
    <g
       id="g229"
       transform="matrix(0.26458333,0,0,0.26458333,3.1750028,-21.792597)">
      <path
         d="m 345.28,245.92 h 192.80002 v 44.96 H 345.28 Z"
         style="fill:#7f7f7f;fill-opacity:1;fill-rule:nonzero;stroke:none"
         id="path231" />
    </g>
    <g
       id="g233"
       transform="matrix(0.01240234,0,0,0.01240234,3.1750028,-21.792597)">
      <text
         transform="translate(7779.04,5645.6001)"
         style="font-variant:normal;font-weight:normal;font-size:327.68px;font-family:F1;-inkscape-font-specification:F1;writing-mode:lr-tb;fill:#ffd966;fill-opacity:1;fill-rule:nonzero;stroke:none"
         id="text237"><tspan
           x="0 232.6528 363.72479 498.07358 642.25281 743.83356 963.37915 1169.8176 1304.1664 1500.7744 1635.1232 1831.7312 2031.616 2133.1968 2329.8047 2513.3057 2644.3774 2749.2351 2965.5039 3178.4958"
           y="0"
           sodipodi:role="line"
           id="tspan235">Attribute Selection:</tspan></text>
    </g>
    <g
       id="g239"
       transform="matrix(0.01240234,0,0,0.01240234,3.1750028,-21.792597)">
      <text
         transform="translate(8509.4404,6038.2402)"
         style="font-variant:normal;font-weight:normal;font-size:327.68px;font-family:F1;-inkscape-font-specification:F1;writing-mode:lr-tb;fill:#ffd966;fill-opacity:1;fill-rule:nonzero;stroke:#ffd966;stroke-width:3.277;stroke-linecap:butt;stroke-linejoin:miter;stroke-miterlimit:10;stroke-dasharray:none;stroke-opacity:1"
         id="text243"><tspan
           x="0 199.8848 412.8768 635.69916 799.53918 999.42395 1137.0496 1336.9343 1523.7119 1720.3199"
           y="0"
           sodipodi:role="line"
           id="tspan241">SubsetEval</tspan></text>
    </g>
    <g
       id="g245"
       transform="matrix(0.26458333,0,0,0.26458333,3.1750028,-21.792597)">
      <path
         d="m 190.88,163.84 h 113.76001 v 45.12001 H 190.88 Z"
         style="fill:#7f7f7f;fill-opacity:1;fill-rule:nonzero;stroke:none"
         id="path247" />
    </g>
    <g
       id="g249"
       transform="matrix(0.26458333,0,0,0.26458333,3.1750028,-21.792597)">
      <path
         d="m 193.11999,167.84 h 111.52002 v 37.27999 H 193.11999 Z"
         style="fill:#7f7f7f;fill-opacity:1;fill-rule:nonzero;stroke:none"
         id="path251" />
    </g>
    <g
       id="g253"
       transform="matrix(0.01240234,0,0,0.01240234,3.1750028,-21.792597)">
      <text
         transform="translate(4942.5601,3898.0801)"
         style="font-variant:normal;font-weight:normal;font-size:327.68px;font-family:F1;-inkscape-font-specification:F1;writing-mode:lr-tb;fill:#ffd966;fill-opacity:1;fill-rule:nonzero;stroke:#ffd966;stroke-width:3.277;stroke-linecap:butt;stroke-linejoin:miter;stroke-miterlimit:10;stroke-dasharray:none;stroke-opacity:1"
         id="text257"><tspan
           x="0 216.2688 353.89438 557.05597"
           y="0"
           sodipodi:role="line"
           id="tspan255">Pre-</tspan></text>
    </g>
    <g
       id="g259"
       transform="matrix(0.01240234,0,0,0.01240234,3.1750028,-21.792597)">
      <text
         transform="translate(4252.96,4290.5601)"
         style="font-variant:normal;font-weight:normal;font-size:327.68px;font-family:F1;-inkscape-font-specification:F1;writing-mode:lr-tb;fill:#ffd966;fill-opacity:1;fill-rule:nonzero;stroke:#ffd966;stroke-width:3.277;stroke-linecap:butt;stroke-linejoin:miter;stroke-miterlimit:10;stroke-dasharray:none;stroke-opacity:1"
         id="text263"><tspan
           x="0 222.82239 360.448 583.27039 766.77118 969.9328 1133.7728 1297.6128 1402.4703 1615.4624 1831.7312 1949.6959"
           y="0"
           sodipodi:role="line"
           id="tspan261">processing 1</tspan></text>
    </g>
    <g
       id="g265"
       transform="matrix(0.26458333,0,0,0.26458333,3.1750028,-21.792597)">
      <path
         d="M 345.44,526.88 H 537.91998 V 572 H 345.44 Z M 190.88,241.92 h 113.76001 v 45.12001 H 190.88 Z m 564.47998,95.68001 H 869.12 V 378.56 H 755.35998 Z"
         style="fill:#7f7f7f;fill-opacity:1;fill-rule:evenodd;stroke:none"
         id="path267" />
    </g>
    <g
       id="g269"
       transform="matrix(0.26458333,0,0,0.26458333,3.1750028,-21.792597)">
      <path
         d="m 773.76001,346.72 h 86.88 v 18.72 h -86.88 z"
         style="fill:#7f7f7f;fill-opacity:1;fill-rule:nonzero;stroke:none"
         id="path271" />
    </g>
    <g
       id="g273"
       transform="matrix(0.01240234,0,0,0.01240234,3.1750028,-21.792597)">
      <text
         transform="translate(16547.801,7717.6001)"
         style="font-variant:normal;font-weight:normal;font-size:327.68px;font-family:F1;-inkscape-font-specification:F1;writing-mode:lr-tb;fill:#ffd966;fill-opacity:1;fill-rule:nonzero;stroke:#ffd966;stroke-width:3.277;stroke-linecap:butt;stroke-linejoin:miter;stroke-miterlimit:10;stroke-dasharray:none;stroke-opacity:1"
         id="text277"><tspan
           x="0 199.8848 389.93918 586.54718 691.40479 904.39679 1097.728 1232.0768 1333.6576 1556.48"
           y="0"
           sodipodi:role="line"
           id="tspan275">Evaluation</tspan></text>
    </g>
    <g
       id="g279"
       transform="matrix(0.26458333,0,0,0.26458333,149.01334,75.235402)">
      <path
         d="M 0,0 H 19.040001 V -1.6 H 0 Z m 17.92,2.56 6.56,-3.36 -6.56,-3.36 z"
         style="fill:#404040;fill-opacity:1;fill-rule:nonzero;stroke:none"
         id="path281" />
    </g>
    <g
       id="g283"
       transform="matrix(0.26458333,0,0,0.26458333,86.106002,48.650066)">
      <path
         d="M 0,0 H 19.200001 V -1.6 H 0 Z M 18.08,2.56 24.639999,-0.8 18.08,-4.16 Z"
         style="fill:#404040;fill-opacity:1;fill-rule:nonzero;stroke:none"
         id="path285" />
    </g>
    <g
       id="g287"
       transform="matrix(0.26458333,0,0,0.26458333,119.80333,58.302069)">
      <path
         d="M 0,0 V 14.08 H 1.6 V 0 Z m -2.4,12.96 3.2,6.72 3.36,-6.72 z"
         style="fill:#404040;fill-opacity:1;fill-rule:nonzero;stroke:none"
         id="path289" />
    </g>
    <g
       id="g291"
       transform="matrix(0.26458333,0,0,0.26458333,219.66766,89.544066)">
      <path
         d="M 0,0 V 40.48 H -264.48001 V 38.880001 H -0.8 L -1.6,39.68 V 0 Z m -263.51999,42.880001 -6.56,-3.200001 6.72,-3.36 z"
         style="fill:#404040;fill-opacity:1;fill-rule:nonzero;stroke:none"
         id="path293" />
    </g>
    <g
       id="g295"
       transform="matrix(0.26458333,0,0,0.26458333,3.1750028,-21.792597)">
      <path
         d="m 345.28,434.56 h 192.80002 v 56 H 345.28 Z M 602.23999,337.60001 H 716 v 53.44 H 602.23999 Z"
         style="fill:#7f7f7f;fill-opacity:1;fill-rule:evenodd;stroke:none"
         id="path297" />
    </g>
    <g
       id="g299"
       transform="matrix(0.26458333,0,0,0.26458333,3.1750028,-21.792597)">
      <path
         d="M 601.76001,338.23999 H 716 v 56 H 601.76001 Z"
         style="fill:#7f7f7f;fill-opacity:1;fill-rule:nonzero;stroke:none"
         id="path301" />
    </g>
    <g
       id="g303"
       transform="matrix(0.01240234,0,0,0.01240234,3.1750028,-21.792597)">
      <text
         transform="translate(13363.2,7536.6401)"
         style="font-variant:normal;font-weight:normal;font-size:327.68px;font-family:F1;-inkscape-font-specification:F1;writing-mode:lr-tb;fill:#ffd966;fill-opacity:1;fill-rule:nonzero;stroke:#ffd966;stroke-width:3.277;stroke-linecap:butt;stroke-linejoin:miter;stroke-miterlimit:10;stroke-dasharray:none;stroke-opacity:1"
         id="text307"><tspan
           x="0 219.54559 416.15359 629.14557 848.69116 1071.5135 1379.5327"
           y="0"
           sodipodi:role="line"
           id="tspan305">Random</tspan></text>
    </g>
    <g
       id="g309"
       transform="matrix(0.01240234,0,0,0.01240234,3.1750028,-21.792597)">
      <text
         transform="translate(13523.7,7929.1201)"
         style="font-variant:normal;font-weight:normal;font-size:327.68px;font-family:F1;-inkscape-font-specification:F1;writing-mode:lr-tb;fill:#ffd966;fill-opacity:1;fill-rule:nonzero;stroke:#ffd966;stroke-width:3.277;stroke-linecap:butt;stroke-linejoin:miter;stroke-miterlimit:10;stroke-dasharray:none;stroke-opacity:1"
         id="text313"><tspan
           x="0 190.0544 412.8768 553.77917 753.664 917.50397 1055.1295"
           y="0"
           sodipodi:role="line"
           id="tspan311">Forest</tspan></text>
    </g>
    <g
       id="g315"
       transform="matrix(0.01240234,0,0,0.01240234,3.1750028,-21.792597)">
      <text
         transform="translate(13274.4,8325.1201)"
         style="font-variant:normal;font-weight:normal;font-size:327.68px;font-family:F1;-inkscape-font-specification:F1;writing-mode:lr-tb;fill:#ffd966;fill-opacity:1;fill-rule:nonzero;stroke:#ffd966;stroke-width:3.277;stroke-linecap:butt;stroke-linejoin:miter;stroke-miterlimit:10;stroke-dasharray:none;stroke-opacity:1"
         id="text319"><tspan
           x="0 242.4832 347.34079 547.22559 711.06561 874.90558 979.76318 1107.5583 1209.1392 1409.0239"
           y="0"
           sodipodi:role="line"
           id="tspan317">Classifier</tspan></text>
    </g>
    <g
       id="g321"
       transform="matrix(0.26458333,0,0,0.26458333,194.69101,72.653066)">
      <path
         d="M 0,0 H 19.040001 V -1.76 H 0 Z M 18.08,2.4 24.639999,-0.96 18.08,-4.16 Z"
         style="fill:#404040;fill-opacity:1;fill-rule:nonzero;stroke:none"
         id="path323" />
    </g>
    <g
       id="g325"
       transform="matrix(0.00981842,0,0,0.00981842,3.1750028,-21.792597)">
      <text
         transform="translate(20501.6,10679.8)"
         style="font-variant:normal;font-weight:normal;font-size:327.68px;font-family:F1;-inkscape-font-specification:F1;writing-mode:lr-tb;fill:#000000;fill-opacity:1;fill-rule:nonzero;stroke:#000000;stroke-width:3.277;stroke-linecap:butt;stroke-linejoin:miter;stroke-miterlimit:10;stroke-dasharray:none;stroke-opacity:1"
         id="text329"><tspan
           x="0 249.03679 406.32318 638.97601 809.36957 979.76318 1156.7103 1343.4879 1553.2031 1664.6144 1776.0255 1998.8479 2208.5632 2349.4656 2460.8767 2686.9758"
           y="0"
           sodipodi:role="line"
           id="tspan327">Cross-validation</tspan></text>
    </g>
    <g
       id="g331"
       transform="matrix(0.26458333,0,0,0.26458333,119.80333,110.71073)">
      <path
         d="M 0,0 V 14.08 H 1.6 V 0 Z m -2.4,12.96 3.2,6.56 3.36,-6.56 z"
         style="fill:#404040;fill-opacity:1;fill-rule:nonzero;stroke:none"
         id="path333" />
    </g>
    <g
       id="g335"
       transform="matrix(0.26458333,0,0,0.26458333,3.1750028,-21.792597)">
      <path
         d="m 193.11999,245.11999 h 111.52002 v 37.28 H 193.11999 Z"
         style="fill:#7f7f7f;fill-opacity:1;fill-rule:nonzero;stroke:none"
         id="path337" />
    </g>
    <g
       id="g339"
       transform="matrix(0.01240234,0,0,0.01240234,3.1750028,-21.792597)">
      <text
         transform="translate(4942.5601,5546.7202)"
         style="font-variant:normal;font-weight:normal;font-size:327.68px;font-family:F1;-inkscape-font-specification:F1;writing-mode:lr-tb;fill:#ffd966;fill-opacity:1;fill-rule:nonzero;stroke:#ffd966;stroke-width:3.277;stroke-linecap:butt;stroke-linejoin:miter;stroke-miterlimit:10;stroke-dasharray:none;stroke-opacity:1"
         id="text343"><tspan
           x="0 216.2688 353.89438 557.05597"
           y="0"
           sodipodi:role="line"
           id="tspan341">Pre-</tspan></text>
    </g>
    <g
       id="g345"
       transform="matrix(0.01240234,0,0,0.01240234,3.1750028,-21.792597)">
      <text
         transform="translate(4229.1201,5939.2002)"
         style="font-variant:normal;font-weight:normal;font-size:327.68px;font-family:F1;-inkscape-font-specification:F1;writing-mode:lr-tb;fill:#ffd966;fill-opacity:1;fill-rule:nonzero;stroke:#ffd966;stroke-width:3.277;stroke-linecap:butt;stroke-linejoin:miter;stroke-miterlimit:10;stroke-dasharray:none;stroke-opacity:1"
         id="text349"><tspan
           x="0 222.82239 360.448 583.27039 766.77118 969.9328 1133.7728 1297.6128 1402.4703 1615.4624 1831.7312 1949.6959"
           y="0"
           sodipodi:role="line"
           id="tspan347">processing 2</tspan></text>
    </g>
    <g
       id="g351"
       transform="matrix(0.26458333,0,0,0.26458333,3.1750028,-21.792597)">
      <path
         d="m 345.60001,332 h 192.16 v 67.84 h -192.16 z"
         style="fill:#7f7f7f;fill-opacity:1;fill-rule:nonzero;stroke:none"
         id="path353" />
    </g>
    <g
       id="g355"
       transform="matrix(0.01240234,0,0,0.01240234,3.1750028,-21.792597)">
      <text
         transform="translate(7714.0801,7526.3999)"
         style="font-variant:normal;font-weight:normal;font-size:327.68px;font-family:F1;-inkscape-font-specification:F1;writing-mode:lr-tb;fill:#ffd966;fill-opacity:1;fill-rule:nonzero;stroke:#ffd966;stroke-width:3.277;stroke-linecap:butt;stroke-linejoin:miter;stroke-miterlimit:10;stroke-dasharray:none;stroke-opacity:1"
         id="text359"><tspan
           x="0 196.608 396.4928 543.94879 740.55676 1048.5759 1248.4608 1386.0864 1585.9712 1730.1504 1848.1151 2048 2247.8848 2356.019 2555.9041 2739.4048 2877.0303 2978.6111 3201.4336"
           y="0"
           sodipodi:role="line"
           id="tspan357">Parameter Selection</tspan></text>
    </g>
    <g
       id="g361"
       transform="matrix(0.01072277,0,0,0.01072277,3.1750028,-21.792597)">
      <text
         transform="translate(8855.2002,9108)"
         style="font-variant:normal;font-weight:normal;font-size:327.68px;font-family:F1;-inkscape-font-specification:F1;writing-mode:lr-tb;fill:#ffffff;fill-opacity:1;fill-rule:nonzero;stroke:none"
         id="text365"><tspan
           x="0 98.304001 271.9744 370.27838 537.3952 661.91357 835.58398 1022.3616 1091.1743 1271.3983 1405.7472 1471.2832 1540.0959 1664.6144 1943.1423 2156.1343 2238.0544 2329.8047 2421.5552 2588.6719 2660.7615 2742.6816 2863.9231 2932.7358 3021.2095 3191.603 3260.416 3345.6128 3561.8816 3650.3552 3722.4448 3810.9182 3984.5886"
           y="0"
           sodipodi:role="line"
           id="tspan363">threshold_list= [ 0, 1, 2, … , n]</tspan></text>
    </g>
    <g
       id="g367"
       transform="matrix(0.01072277,0,0,0.01072277,3.1750028,-21.792597)">
      <text
         transform="translate(8788.1602,9498.7197)"
         style="font-variant:normal;font-weight:normal;font-size:327.68px;font-family:F1;-inkscape-font-specification:F1;writing-mode:lr-tb;fill:#ffffff;fill-opacity:1;fill-rule:nonzero;stroke:none"
         id="text371"><tspan
           x="0 173.67039 281.80478 416.15359 504.6272 671.74396 832.30719 930.61121 1104.2816 1202.5856 1369.7024 1497.4976 1631.8463 1697.3823 1766.1952 1890.7135 2074.2144 2287.2063 2372.4031 2464.1536 2549.3503 2719.7439 2791.8335 2877.0303 2994.9951 3067.0847 3149.0046 3319.3984 3391.488 3476.6848 3696.2302 3781.427 3853.5166 3945.2671 4118.9375"
           y="0"
           sodipodi:role="line"
           id="tspan369">nr_features_list= [ 0, 1, 2, … , n]</tspan></text>
    </g>
    <g
       id="g373"
       transform="matrix(0.26458333,0,0,0.26458333,149.01334,123.4954)">
      <path
         d="M 0,0 H 19.040001 V -1.76 H 0 Z m 17.92,2.4 6.56,-3.36 -6.56,-3.2 z"
         style="fill:#404040;fill-opacity:1;fill-rule:nonzero;stroke:none"
         id="path375" />
    </g>
    <g
       id="g377"
       transform="matrix(0.26458333,0,0,0.26458333,102.06567,149.6574)">
      <path
         d="M 0,0 C 0,-12.48 10.08,-22.559999 22.559999,-22.559999 H 113.6 c 12.32,0 22.56,10.079999 22.56,22.559999 v 0 c 0,12.32 -10.24,22.4 -22.56,22.4 H 22.559999 C 10.08,22.4 0,12.32 0,0 Z"
         style="fill:#1c819e;fill-opacity:1;fill-rule:evenodd;stroke:none"
         id="path379" />
    </g>
    <g
       id="g381"
       transform="matrix(0.01240234,0,0,0.01240234,3.1750028,-21.792597)">
      <text
         transform="translate(8697.1201,13745.4)"
         style="font-variant:normal;font-weight:normal;font-size:327.68px;font-family:F1;-inkscape-font-specification:F1;writing-mode:lr-tb;fill:#ffffff;fill-opacity:1;fill-rule:nonzero;stroke:#ffffff;stroke-width:3.277;stroke-linecap:butt;stroke-linejoin:miter;stroke-miterlimit:10;stroke-dasharray:none;stroke-opacity:1"
         id="text385"><tspan
           x="0 199.8848 403.04639 507.90399 711.06561 894.56641 1032.192 1232.0768 1454.8992"
           y="0"
           sodipodi:role="line"
           id="tspan383">Selected</tspan></text>
    </g>
    <g
       id="g387"
       transform="matrix(0.01240234,0,0,0.01240234,3.1750028,-21.792597)">
      <text
         transform="translate(8734.7197,14138.1)"
         style="font-variant:normal;font-weight:normal;font-size:327.68px;font-family:F1;-inkscape-font-specification:F1;writing-mode:lr-tb;fill:#ffffff;fill-opacity:1;fill-rule:nonzero;stroke:#ffffff;stroke-width:3.277;stroke-linecap:butt;stroke-linejoin:miter;stroke-miterlimit:10;stroke-dasharray:none;stroke-opacity:1"
         id="text391"><tspan
           x="0 127.7952 327.67999 524.28796 661.91357 874.90558 1012.5312 1215.6927"
           y="0"
           sodipodi:role="line"
           id="tspan389">features</tspan></text>
    </g>
    <g
       id="g393"
       transform="matrix(0.26458333,0,0,0.26458333,152.18834,149.6574)">
      <path
         d="M 0,0 C 0,-12.48 10.24,-22.559999 22.559999,-22.559999 H 113.6 c 12.48,0 22.56,10.079999 22.56,22.559999 v 0 c 0,12.32 -10.08,22.4 -22.56,22.4 H 22.559999 C 10.24,22.4 0,12.32 0,0 Z"
         style="fill:#1c819e;fill-opacity:1;fill-rule:evenodd;stroke:none"
         id="path395" />
    </g>
    <g
       id="g397"
       transform="matrix(0.01240234,0,0,0.01240234,3.1750028,-21.792597)">
      <text
         transform="translate(12629.3,13745.4)"
         style="font-variant:normal;font-weight:normal;font-size:327.68px;font-family:F1;-inkscape-font-specification:F1;writing-mode:lr-tb;fill:#ffffff;fill-opacity:1;fill-rule:nonzero;stroke:#ffffff;stroke-width:3.277;stroke-linecap:butt;stroke-linejoin:miter;stroke-miterlimit:10;stroke-dasharray:none;stroke-opacity:1"
         id="text401"><tspan
           x="0 199.8848 389.93918 586.54718 691.40479 904.39679 1097.728 1232.0768 1333.6576 1556.48 1769.4719"
           y="0"
           sodipodi:role="line"
           id="tspan399">Evaluation</tspan></text>
    </g>
    <g
       id="g403"
       transform="matrix(0.01240234,0,0,0.01240234,3.1750028,-21.792597)">
      <text
         transform="translate(12892.2,14138.1)"
         style="font-variant:normal;font-weight:normal;font-size:327.68px;font-family:F1;-inkscape-font-specification:F1;writing-mode:lr-tb;fill:#ffffff;fill-opacity:1;fill-rule:nonzero;stroke:#ffffff;stroke-width:3.277;stroke-linecap:butt;stroke-linejoin:miter;stroke-miterlimit:10;stroke-dasharray:none;stroke-opacity:1"
         id="text407"><tspan
           x="0 308.0192 507.90399 645.5296 792.9856 897.8432 1078.0671"
           y="0"
           sodipodi:role="line"
           id="tspan405">metrics</tspan></text>
    </g>
    <g
       id="g409"
       transform="matrix(0.26458333,0,0,0.26458333,219.66766,138.01573)">
      <path
         d="M 0,0 V 40.48 H -106.08 V 38.880001 H -0.8 L -1.6,39.68 V 0 Z m -105.12,42.880001 -6.56,-3.360001 6.72,-3.2 z"
         style="fill:#404040;fill-opacity:1;fill-rule:nonzero;stroke:none"
         id="path411" />
    </g>
    <g
       id="g413"
       transform="matrix(0.26458333,0,0,0.26458333,3.1750028,-21.792597)">
      <path
         d="m 595.20001,509.60001 h 282.39997 v 71.68002 H 595.20001 Z"
         style="fill:#d9d9d9;fill-opacity:1;fill-rule:nonzero;stroke:none"
         id="path415" />
    </g>
    <g
       id="g417"
       transform="matrix(0.26458333,0,0,0.26458333,3.1750028,-21.792597)">
      <path
         d="m 594.71997,581.28003 v -3.36005 h 1.12006 v 3.36005 z m 0,-4.48004 v -3.20001 h 1.12006 v 3.20001 z m 0,-4.32001 V 569.12 h 1.12006 v 3.35998 z m 0,-4.47998 v -3.20001 h 1.12006 V 568 Z m 0,-4.32001 v -3.35998 h 1.12006 v 3.35998 z m 0,-4.47998 V 556 h 1.12006 v 3.20001 z m 0,-4.32001 v -3.35998 h 1.12006 V 554.88 Z m 0,-4.47998 v -3.20001 h 1.12006 v 3.20001 z m 0,-4.32 v -3.36005 h 1.12006 v 3.36005 z m 0,-4.48004 v -3.19996 h 1.12006 v 3.19996 z m 0,-4.31995 v -3.36005 h 1.12006 v 3.36005 z m 0,-4.48004 v -3.20001 h 1.12006 v 3.20001 z m 0,-4.32001 V 525.12 h 1.12006 v 3.35998 z m 0,-4.47998 v -3.20001 h 1.12006 V 524 Z m 0,-4.32001 v -3.35998 h 1.12006 v 3.35998 z m 0,-4.47998 V 512 h 1.12006 v 3.20001 z m 0,-4.32001 v -1.92001 h 2.56006 v 1.12 h -2.08002 l 0.64002,-0.47998 V 510.88 Z m 3.68005,-1.92001 h 3.19996 v 1.12 h -3.19996 z m 4.31995,0 h 3.36005 v 1.12 h -3.36005 z m 4.48004,0 h 3.20001 v 1.12 h -3.20001 z m 4.32001,0 H 614.88 v 1.12 h -3.35998 z m 4.47998,0 h 3.20001 v 1.12 H 616 Z m 4.32001,0 h 3.35998 v 1.12 h -3.35998 z m 4.47998,0 H 628 v 1.12 h -3.20001 z m 4.32001,0 h 3.35998 v 1.12 H 629.12 Z m 4.47998,0 h 3.20001 v 1.12 h -3.20001 z m 4.32,0 h 3.36005 v 1.12 h -3.36005 z m 4.48004,0 h 3.19996 v 1.12 h -3.19996 z m 4.31995,0 h 3.36005 v 1.12 h -3.36005 z m 4.48004,0 h 3.20001 v 1.12 h -3.20001 z m 4.32001,0 H 658.88 v 1.12 h -3.35998 z m 4.47998,0 h 3.20001 v 1.12 H 660 Z m 4.32001,0 h 3.35998 v 1.12 h -3.35998 z m 4.47998,0 H 672 v 1.12 h -3.20001 z m 4.32001,0 h 3.35998 v 1.12 H 673.12 Z m 4.47998,0 h 3.20001 v 1.12 h -3.20001 z m 4.32,0 h 3.36005 v 1.12 h -3.36005 z m 4.48004,0 h 3.19996 v 1.12 h -3.19996 z m 4.31995,0 h 3.36005 v 1.12 h -3.36005 z m 4.48004,0 h 3.20001 v 1.12 h -3.20001 z m 4.32001,0 H 702.88 v 1.12 h -3.35998 z m 4.47998,0 h 3.20001 v 1.12 H 704 Z m 4.32001,0 h 3.35998 v 1.12 h -3.35998 z m 4.47998,0 H 716 v 1.12 h -3.20001 z m 4.32001,0 h 3.35998 v 1.12 H 717.12 Z m 4.47998,0 h 3.20001 v 1.12 h -3.20001 z m 4.32,0 h 3.36005 v 1.12 h -3.36005 z m 4.48004,0 h 3.19996 v 1.12 h -3.19996 z m 4.31995,0 h 3.36005 v 1.12 h -3.36005 z m 4.48004,0 h 3.20001 v 1.12 h -3.20001 z m 4.32001,0 H 746.88 v 1.12 h -3.35998 z m 4.47998,0 h 3.20001 v 1.12 H 748 Z m 4.32001,0 h 3.35998 v 1.12 h -3.35998 z m 4.47998,0 H 760 v 1.12 h -3.20001 z m 4.32001,0 h 3.35998 v 1.12 H 761.12 Z m 4.47998,0 h 3.20001 v 1.12 h -3.20001 z m 4.32,0 h 3.36005 v 1.12 h -3.36005 z m 4.48004,0 h 3.19996 v 1.12 h -3.19996 z m 4.31995,0 h 3.36005 v 1.12 h -3.36005 z m 4.48004,0 h 3.20001 v 1.12 h -3.20001 z m 4.32001,0 H 790.88 v 1.12 h -3.35998 z m 4.47998,0 h 3.20001 v 1.12 H 792 Z m 4.32001,0 h 3.35998 v 1.12 h -3.35998 z m 4.47998,0 H 804 v 1.12 h -3.20001 z m 4.32001,0 h 3.35998 v 1.12 H 805.12 Z m 4.47998,0 h 3.20001 v 1.12 h -3.20001 z m 4.32,0 h 3.36005 v 1.12 h -3.36005 z m 4.48004,0 h 3.19996 v 1.12 h -3.19996 z m 4.31995,0 h 3.36005 v 1.12 h -3.36005 z m 4.48004,0 h 3.20001 v 1.12 h -3.20001 z m 4.32001,0 H 834.88 v 1.12 h -3.35998 z m 4.47998,0 h 3.20001 v 1.12 H 836 Z m 4.32001,0 h 3.35998 v 1.12 h -3.35998 z m 4.47998,0 H 848 v 1.12 h -3.20001 z m 4.32001,0 h 3.35998 v 1.12 H 849.12 Z m 4.47998,0 h 3.20001 v 1.12 h -3.20001 z m 4.32,0 h 3.36005 v 1.12 h -3.36005 z m 4.48004,0 h 3.19996 v 1.12 h -3.19996 z m 4.31995,0 h 3.36005 v 1.12 h -3.36005 z m 4.48004,0 h 3.20001 v 1.12 h -3.20001 z m 4.32001,0 h 2.71997 V 510.72 H 877.12 v -1.11999 l 0.47998,0.47998 h -2.07996 z m 2.71997,2.88001 v 3.36001 H 877.12 V 511.84 Z m 0,4.48001 v 3.20001 H 877.12 v -3.20001 z m 0,4.32 V 524 H 877.12 v -3.35999 z m 0,4.47999 v 3.20001 H 877.12 V 525.12 Z m 0,4.32 v 3.35999 H 877.12 V 529.44 Z m 0,4.47998 V 537.12 H 877.12 v -3.20002 z m 0,4.32001 v 3.35999 H 877.12 v -3.35999 z m 0,4.47998 v 3.20001 H 877.12 v -3.20001 z m 0,4.32001 v 3.36004 H 877.12 v -3.36004 z m 0,4.48004 v 3.19995 H 877.12 v -3.19995 z m 0,4.32001 v 3.35998 H 877.12 v -3.35998 z m 0,4.47998 v 3.20001 H 877.12 v -3.20001 z m 0,4.32 V 568 H 877.12 v -3.35999 z m 0,4.47999 v 3.20001 H 877.12 V 569.12 Z m 0,4.32 v 3.35999 H 877.12 V 573.44 Z m 0,4.47998 V 581.12 H 877.12 v -3.20002 z m -1.59998,3.84003 h -3.35998 v -1.12 h 3.35998 z m -4.48004,0 h -3.19995 v -1.12 h 3.19995 z m -4.31994,0 h -3.36005 v -1.12 h 3.36005 z m -4.48005,0 h -3.20001 v -1.12 h 3.20001 z m -4.32,0 h -3.35999 v -1.12 h 3.35999 z m -4.47998,0 h -3.20002 v -1.12 H 854.56 Z m -4.32001,0 H 846.88 v -1.12 h 3.35999 z m -4.47998,0 H 842.56 v -1.12 h 3.20001 z m -4.32001,0 h -3.35998 v -1.12 H 841.44 Z m -4.47998,0 h -3.20001 v -1.12 h 3.20001 z m -4.32001,0 h -3.35998 v -1.12 h 3.35998 z m -4.48004,0 h -3.19995 v -1.12 h 3.19995 z m -4.31994,0 h -3.36005 v -1.12 h 3.36005 z m -4.48005,0 h -3.20001 v -1.12 h 3.20001 z m -4.32,0 h -3.35999 v -1.12 h 3.35999 z m -4.47998,0 h -3.20002 v -1.12 H 810.56 Z m -4.32001,0 H 802.88 v -1.12 h 3.35999 z m -4.47998,0 H 798.56 v -1.12 h 3.20001 z m -4.32001,0 h -3.35998 v -1.12 H 797.44 Z m -4.47998,0 h -3.20001 v -1.12 h 3.20001 z m -4.32001,0 h -3.35998 v -1.12 h 3.35998 z m -4.48004,0 h -3.19995 v -1.12 h 3.19995 z m -4.31994,0 h -3.36005 v -1.12 h 3.36005 z m -4.48005,0 h -3.20001 v -1.12 h 3.20001 z m -4.32,0 h -3.35999 v -1.12 h 3.35999 z m -4.47998,0 h -3.20002 v -1.12 H 766.56 Z m -4.32001,0 H 758.88 v -1.12 h 3.35999 z m -4.47998,0 H 754.56 v -1.12 h 3.20001 z m -4.32001,0 h -3.35998 v -1.12 H 753.44 Z m -4.47998,0 h -3.20001 v -1.12 h 3.20001 z m -4.32001,0 h -3.35998 v -1.12 h 3.35998 z m -4.48004,0 h -3.19995 v -1.12 h 3.19995 z m -4.31994,0 h -3.36005 v -1.12 h 3.36005 z m -4.48005,0 h -3.20001 v -1.12 h 3.20001 z m -4.32,0 h -3.35999 v -1.12 h 3.35999 z m -4.47998,0 h -3.20002 v -1.12 H 722.56 Z m -4.32001,0 H 714.88 v -1.12 h 3.35999 z m -4.47998,0 H 710.56 v -1.12 h 3.20001 z m -4.32001,0 h -3.35998 v -1.12 H 709.44 Z m -4.47998,0 h -3.20001 v -1.12 h 3.20001 z m -4.32001,0 h -3.35998 v -1.12 h 3.35998 z m -4.48004,0 h -3.19995 v -1.12 h 3.19995 z m -4.31994,0 h -3.36005 v -1.12 h 3.36005 z m -4.48005,0 h -3.20001 v -1.12 h 3.20001 z m -4.32,0 h -3.35999 v -1.12 h 3.35999 z m -4.47998,0 h -3.20002 v -1.12 H 678.56 Z m -4.32001,0 H 670.88 v -1.12 h 3.35999 z m -4.47998,0 H 666.56 v -1.12 h 3.20001 z m -4.32001,0 h -3.35998 v -1.12 H 665.44 Z m -4.47998,0 h -3.20001 v -1.12 h 3.20001 z m -4.32001,0 h -3.35998 v -1.12 h 3.35998 z m -4.48004,0 h -3.19995 v -1.12 h 3.19995 z m -4.31994,0 h -3.36005 v -1.12 h 3.36005 z m -4.48005,0 h -3.20001 v -1.12 h 3.20001 z m -4.32,0 h -3.35999 v -1.12 h 3.35999 z m -4.47998,0 h -3.20002 v -1.12 H 634.56 Z m -4.32001,0 H 626.88 v -1.12 h 3.35999 z m -4.47998,0 H 622.56 v -1.12 h 3.20001 z m -4.32001,0 h -3.35998 v -1.12 H 621.44 Z m -4.47998,0 h -3.20001 v -1.12 h 3.20001 z m -4.32001,0 h -3.35998 v -1.12 h 3.35998 z m -4.48004,0 h -3.19995 v -1.12 h 3.19995 z m -4.31994,0 h -3.36005 v -1.12 h 3.36005 z m -4.48005,0 h -3.20001 v -1.12 h 3.20001 z"
         style="fill:#000000;fill-opacity:1;fill-rule:nonzero;stroke:none"
         id="path419" />
    </g>
    <g
       id="g421"
       transform="matrix(0.26458333,0,0,0.26458333,3.1750028,-21.792597)">
      <path
         d="M 755.35998,517.12 H 869.12 v 40.79998 H 755.35998 Z"
         style="fill:#7f7f7f;fill-opacity:1;fill-rule:nonzero;stroke:none"
         id="path423" />
    </g>
    <g
       id="g425"
       transform="matrix(0.26458333,0,0,0.26458333,3.1750028,-21.792597)">
      <path
         d="m 773.76001,526.23999 h 86.88 v 18.72003 h -86.88 z"
         style="fill:#7f7f7f;fill-opacity:1;fill-rule:nonzero;stroke:none"
         id="path427" />
    </g>
    <g
       id="g429"
       transform="matrix(0.01240234,0,0,0.01240234,3.1750028,-21.792597)">
      <text
         transform="translate(16547.801,11547.4)"
         style="font-variant:normal;font-weight:normal;font-size:327.68px;font-family:F1;-inkscape-font-specification:F1;writing-mode:lr-tb;fill:#ffd966;fill-opacity:1;fill-rule:nonzero;stroke:#ffd966;stroke-width:3.277;stroke-linecap:butt;stroke-linejoin:miter;stroke-miterlimit:10;stroke-dasharray:none;stroke-opacity:1"
         id="text433"><tspan
           x="0 199.8848 389.93918 586.54718 691.40479 904.39679 1097.728 1232.0768 1333.6576 1556.48"
           y="0"
           sodipodi:role="line"
           id="tspan431">Evaluation</tspan></text>
    </g>
    <g
       id="g435"
       transform="matrix(0.26458333,0,0,0.26458333,3.1750028,-21.792597)">
      <path
         d="M 602.23999,517.12 H 716 v 53.44 H 602.23999 Z"
         style="fill:#7f7f7f;fill-opacity:1;fill-rule:nonzero;stroke:none"
         id="path437" />
    </g>
    <g
       id="g439"
       transform="matrix(0.26458333,0,0,0.26458333,3.1750028,-21.792597)">
      <path
         d="M 601.76001,517.76001 H 716 v 56 H 601.76001 Z"
         style="fill:#7f7f7f;fill-opacity:1;fill-rule:nonzero;stroke:none"
         id="path441" />
    </g>
    <g
       id="g443"
       transform="matrix(0.01240234,0,0,0.01240234,3.1750028,-21.792597)">
      <text
         transform="translate(13363.2,11366.4)"
         style="font-variant:normal;font-weight:normal;font-size:327.68px;font-family:F1;-inkscape-font-specification:F1;writing-mode:lr-tb;fill:#ffd966;fill-opacity:1;fill-rule:nonzero;stroke:#ffd966;stroke-width:3.277;stroke-linecap:butt;stroke-linejoin:miter;stroke-miterlimit:10;stroke-dasharray:none;stroke-opacity:1"
         id="text447"><tspan
           x="0 219.54559 416.15359 629.14557 848.69116 1071.5135 1379.5327"
           y="0"
           sodipodi:role="line"
           id="tspan445">Random</tspan></text>
    </g>
    <g
       id="g449"
       transform="matrix(0.01240234,0,0,0.01240234,3.1750028,-21.792597)">
      <text
         transform="translate(13523.7,11758.9)"
         style="font-variant:normal;font-weight:normal;font-size:327.68px;font-family:F1;-inkscape-font-specification:F1;writing-mode:lr-tb;fill:#ffd966;fill-opacity:1;fill-rule:nonzero;stroke:#ffd966;stroke-width:3.277;stroke-linecap:butt;stroke-linejoin:miter;stroke-miterlimit:10;stroke-dasharray:none;stroke-opacity:1"
         id="text453"><tspan
           x="0 190.0544 412.8768 553.77917 753.664 917.50397 1055.1295"
           y="0"
           sodipodi:role="line"
           id="tspan451">Forest</tspan></text>
    </g>
    <g
       id="g455"
       transform="matrix(0.01240234,0,0,0.01240234,3.1750028,-21.792597)">
      <text
         transform="translate(13274.4,12154.9)"
         style="font-variant:normal;font-weight:normal;font-size:327.68px;font-family:F1;-inkscape-font-specification:F1;writing-mode:lr-tb;fill:#ffd966;fill-opacity:1;fill-rule:nonzero;stroke:#ffd966;stroke-width:3.277;stroke-linecap:butt;stroke-linejoin:miter;stroke-miterlimit:10;stroke-dasharray:none;stroke-opacity:1"
         id="text459"><tspan
           x="0 242.4832 347.34079 547.22559 711.06561 874.90558 979.76318 1107.5583 1209.1392 1409.0239"
           y="0"
           sodipodi:role="line"
           id="tspan457">Classifier</tspan></text>
    </g>
    <g
       id="g461"
       transform="matrix(0.26458333,0,0,0.26458333,194.69101,120.10874)">
      <path
         d="M 0,0 H 19.040001 V -1.6 H 0 Z M 18.08,2.56 24.639999,-0.8 18.08,-4 Z"
         style="fill:#404040;fill-opacity:1;fill-rule:nonzero;stroke:none"
         id="path463" />
    </g>
    <g
       id="g465"
       transform="matrix(0.00981842,0,0,0.00981842,3.1750028,-21.792597)">
      <text
         transform="translate(20501.6,15517.4)"
         style="font-variant:normal;font-weight:normal;font-size:327.68px;font-family:F1;-inkscape-font-specification:F1;writing-mode:lr-tb;fill:#000000;fill-opacity:1;fill-rule:nonzero;stroke:#000000;stroke-width:3.277;stroke-linecap:butt;stroke-linejoin:miter;stroke-miterlimit:10;stroke-dasharray:none;stroke-opacity:1"
         id="text469"><tspan
           x="0 249.03679 406.32318 638.97601 809.36957 979.76318 1156.7103 1343.4879 1553.2031 1664.6144 1776.0255 1998.8479 2208.5632 2349.4656 2460.8767 2686.9758"
           y="0"
           sodipodi:role="line"
           id="tspan467">Cross-validation</tspan></text>
    </g>
    <g
       id="g471"
       transform="matrix(0.01240234,0,0,0.01240234,3.1750028,-21.792597)">
      <text
         transform="translate(7779.04,11656.5)"
         style="font-variant:normal;font-weight:normal;font-size:327.68px;font-family:F1;-inkscape-font-specification:F1;writing-mode:lr-tb;fill:#ffd966;fill-opacity:1;fill-rule:nonzero;stroke:none"
         id="text475"><tspan
           x="0 232.6528 363.72479 498.07358 642.25281 743.83356 963.37915 1169.8176 1304.1664 1500.7744 1635.1232 1831.7312 2031.616 2133.1968 2329.8047 2513.3057 2644.3774 2749.2351 2965.5039 3178.4958 3283.3535"
           y="0"
           sodipodi:role="line"
           id="tspan473">Attribute Selection:</tspan></text>
    </g>
    <g
       id="g477"
       transform="matrix(0.01240234,0,0,0.01240234,3.1750028,-21.792597)">
      <text
         transform="translate(8700.6396,12049.1)"
         style="font-variant:normal;font-weight:normal;font-size:327.68px;font-family:F1;-inkscape-font-specification:F1;writing-mode:lr-tb;fill:#ffd966;fill-opacity:1;fill-rule:nonzero;stroke:#ffd966;stroke-width:3.277;stroke-linecap:butt;stroke-linejoin:miter;stroke-miterlimit:10;stroke-dasharray:none;stroke-opacity:1"
         id="text481"><tspan
           x="0 111.41119 324.4032 452.19839 671.74396 927.33435 1127.2191 1232.0768"
           y="0"
           sodipodi:role="line"
           id="tspan479">InfoGain</tspan></text>
    </g>
    <g
       id="g483"
       transform="matrix(0.26458333,0,0,0.26458333,119.84567,132.80874)">
      <path
         d="M 0,0 V 34.080002 H 1.76 V 0 Z M -2.4,32.959999 0.8,39.52 4.16,32.959999 Z"
         style="fill:#404040;fill-opacity:1;fill-rule:nonzero;stroke:none"
         id="path485" />
    </g>
    <g
       id="g487"
       transform="matrix(0.01240234,0,0,0.01240234,3.1750028,-21.792597)">
      <text
         transform="translate(7379.6802,13032.2)"
         style="font-variant:normal;font-weight:normal;font-size:327.68px;font-family:F1;-inkscape-font-specification:F1;writing-mode:lr-tb;fill:#7f7f7f;fill-opacity:1;fill-rule:nonzero;stroke:#7f7f7f;stroke-width:3.277;stroke-linecap:butt;stroke-linejoin:miter;stroke-miterlimit:10;stroke-dasharray:none;stroke-opacity:1"
         id="text491"><tspan
           x="0 199.8848 471.85919"
           y="0"
           sodipodi:role="line"
           id="tspan489">END</tspan></text>
    </g>
    <g
       id="g493"
       transform="matrix(0.01240234,0,0,0.01240234,3.1750028,-21.792597)">
      <text
         transform="translate(747.52002,3413.28)"
         style="font-variant:normal;font-weight:normal;font-size:327.68px;font-family:F1;-inkscape-font-specification:F1;writing-mode:lr-tb;fill:#7f7f7f;fill-opacity:1;fill-rule:nonzero;stroke:#7f7f7f;stroke-width:3.277;stroke-linecap:butt;stroke-linejoin:miter;stroke-miterlimit:10;stroke-dasharray:none;stroke-opacity:1"
         id="text497"><tspan
           x="0 199.8848 370.27838 609.4848 829.0304"
           y="0"
           sodipodi:role="line"
           id="tspan495">START</tspan></text>
    </g>
    <g
       id="g499"
       transform="matrix(0.01601973,0,0,0.01601973,3.1750028,-21.792597)">
      <text
         transform="translate(8789.2803,10808.2)"
         style="font-variant:normal;font-weight:normal;font-size:327.68px;font-family:F2;-inkscape-font-specification:F2;writing-mode:lr-tb;fill:#000000;fill-opacity:1;fill-rule:nonzero;stroke:none"
         id="text503"><tspan
           x="0"
           y="0"
           id="tspan501">+</tspan></text>
    </g>
    <g
       id="g505"
       transform="matrix(0.26458333,0,0,0.26458333,68.326002,35.865402)">
      <path
         d="M 0,0 V 13.92 H 1.6 V 0 Z m -2.4,12.8 3.2,6.72 3.36,-6.72 z"
         style="fill:#404040;fill-opacity:1;fill-rule:nonzero;stroke:none"
         id="path507" />
    </g>
    <g
       id="g509"
       transform="matrix(0.01072277,0,0,0.01072277,3.1750028,-21.792597)">
      <text
         transform="translate(9483.04,11145.1)"
         style="font-variant:normal;font-weight:normal;font-size:327.68px;font-family:F1;-inkscape-font-specification:F1;writing-mode:lr-tb;fill:#ffffff;fill-opacity:1;fill-rule:nonzero;stroke:#ffffff;stroke-width:3.277;stroke-linecap:butt;stroke-linejoin:miter;stroke-miterlimit:10;stroke-dasharray:none;stroke-opacity:1"
         id="text513"><tspan
           x="0 219.54559 429.2608 599.65436 740.55676 855.24481 1081.344 1287.7823 1438.5151 1641.6768 1952.9728 2159.4111 2297.0369 2506.752 2657.4849"
           y="0"
           sodipodi:role="line"
           id="tspan511">Best parameters</tspan></text>
    </g>
    <g
       id="g515"
       transform="matrix(0.00981842,0,0,0.00981842,3.1750028,-21.792597)">
      <text
         transform="translate(10684.2,12572.6)"
         style="font-variant:normal;font-weight:normal;font-size:327.68px;font-family:F1;-inkscape-font-specification:F1;writing-mode:lr-tb;fill:#ffffff;fill-opacity:1;fill-rule:nonzero;stroke:none"
         id="text519"><tspan
           x="0 140.90239 360.448 514.45758 720.896 891.28955 1110.8352 1340.2112 1451.6223 1680.9984 1805.5167 2061.1072 2195.4561"
           y="0"
           sodipodi:role="line"
           id="tspan517">threshold = X</tspan></text>
    </g>
    <g
       id="g521"
       transform="matrix(0.00981842,0,0,0.00981842,3.1750028,-21.792597)">
      <text
         transform="translate(10533.1,12960.6)"
         style="font-variant:normal;font-weight:normal;font-size:327.68px;font-family:F1;-inkscape-font-specification:F1;writing-mode:lr-tb;fill:#ffffff;fill-opacity:1;fill-rule:nonzero;stroke:none"
         id="text525"><tspan
           x="0 219.54559 370.27838 550.50238 684.8512 891.28955 1101.0048 1241.9072 1461.4528 1612.1855 1818.6239 2120.0896 2375.6799 2510.0288"
           y="0"
           sodipodi:role="line"
           id="tspan523">nr_features= Y</tspan></text>
    </g>
  </g>
</svg>
