<?xml version="1.0" encoding="UTF-8" standalone="no"?>
<svg
   xmlns:dc="http://purl.org/dc/elements/1.1/"
   xmlns:cc="http://creativecommons.org/ns#"
   xmlns:rdf="http://www.w3.org/1999/02/22-rdf-syntax-ns#"
   xmlns:svg="http://www.w3.org/2000/svg"
   xmlns="http://www.w3.org/2000/svg"
   xmlns:xlink="http://www.w3.org/1999/xlink"
   xmlns:sodipodi="http://sodipodi.sourceforge.net/DTD/sodipodi-0.dtd"
   xmlns:inkscape="http://www.inkscape.org/namespaces/inkscape"
   height="507.06745pt"
   version="1.1"
   viewBox="0 0 478.122545 507.06745"
   width="478.122545pt"
   id="svg791"
   sodipodi:docname="not_normalized.svg"
   inkscape:version="1.0.1 (3bc2e813f5, 2020-09-07)">
  <sodipodi:namedview
     pagecolor="#ffffff"
     bordercolor="#666666"
     borderopacity="1"
     objecttolerance="10"
     gridtolerance="10"
     guidetolerance="10"
     inkscape:pageopacity="0"
     inkscape:pageshadow="2"
     inkscape:window-width="2400"
     inkscape:window-height="1271"
     id="namedview793"
     showgrid="false"
     inkscape:zoom="1.254271"
     inkscape:cx="216.82861"
     inkscape:cy="271.37012"
     inkscape:window-x="-9"
     inkscape:window-y="-9"
     inkscape:window-maximized="1"
     inkscape:current-layer="svg791" />
  <metadata
     id="metadata2">
    <rdf:RDF>
      <cc:Work>
        <dc:type
           rdf:resource="http://purl.org/dc/dcmitype/StillImage" />
        <dc:date>2022-12-28T22:16:47.711185</dc:date>
        <dc:format>image/svg+xml</dc:format>
        <dc:creator>
          <cc:Agent>
            <dc:title>Matplotlib v3.3.2, https://matplotlib.org/</dc:title>
          </cc:Agent>
        </dc:creator>
      </cc:Work>
    </rdf:RDF>
  </metadata>
  <defs
     id="defs6">
    <style
       type="text/css"
       id="style4">*{stroke-linecap:butt;stroke-linejoin:round;}</style>
    <defs
       id="defs552">
      <path
         d="M 2,0 H -2"
         id="m3eaed11be1"
         style="stroke:#696969" />
    </defs>
  </defs>
  <g
     id="line2d_8">
    <path
       clip-path="url(#p4fdd5a9366)"
       style="fill:none;stroke:#424242;stroke-width:2.16;stroke-linecap:round"
       id="path533"
       d="" />
  </g>
  <g
     id="line2d_9">
    <path
       clip-path="url(#p4fdd5a9366)"
       style="fill:none;stroke:#424242;stroke-width:2.16;stroke-linecap:round"
       id="path536"
       d="" />
  </g>
  <g
     id="line2d_10">
    <path
       clip-path="url(#p4fdd5a9366)"
       style="fill:none;stroke:#424242;stroke-width:2.16;stroke-linecap:round"
       id="path539"
       d="" />
  </g>
  <g
     id="line2d_11">
    <path
       clip-path="url(#p4fdd5a9366)"
       style="fill:none;stroke:#424242;stroke-width:2.16;stroke-linecap:round"
       id="path542"
       d="" />
  </g>
  <g
     id="line2d_12">
    <path
       clip-path="url(#p4fdd5a9366)"
       style="fill:none;stroke:#424242;stroke-width:2.16;stroke-linecap:round"
       id="path545"
       d="" />
  </g>
  <g
     id="line2d_13">
    <path
       clip-path="url(#p4fdd5a9366)"
       style="fill:none;stroke:#424242;stroke-width:2.16;stroke-linecap:round"
       id="path548"
       d="" />
  </g>
  <g
     id="line2d_16" />
  <g
     id="g2250">
    <path
       d="M 99.006628,357.38081 H 339.82058 V 67.175437 H 99.006628 Z"
       style="fill:#ffffff"
       id="path11" />
    <g
       id="ytick_1">
      <g
         id="line2d_1">
        <path
           clip-path="url(#p4fdd5a9366)"
           d="M 99.006628,357.38081 H 339.82058"
           style="fill:none;stroke:#cccccc;stroke-width:0.8;stroke-linecap:round"
           id="path336" />
      </g>
      <g
         id="text_7">
        <!-- 0 -->
        <g
           style="fill:#262626"
           transform="matrix(0.132,0,0,-0.132,83.366191,362.10497)"
           id="g344">
          <defs
             id="defs340">
            <path
               d="m 4.15625,35.296875 q 0,12.703125 2.609375,20.4375 2.609375,7.75 7.75,11.9375 5.15625,4.203125 12.96875,4.203125 5.765625,0 10.109375,-2.328125 4.34375,-2.3125 7.171875,-6.6875 Q 47.609375,58.5 49.21875,52.21875 q 1.609375,-6.265625 1.609375,-16.921875 0,-12.59375 -2.59375,-20.328125 Q 45.65625,7.234375 40.5,3 35.359375,-1.21875 27.484375,-1.21875 q -10.34375,0 -16.25,7.421875 -7.078125,8.9375 -7.078125,29.09375 z m 9.03125,0 q 0,-17.625 4.125,-23.46875 Q 21.4375,6 27.484375,6 q 6.0625,0 10.1875,5.859375 4.125,5.859375 4.125,23.4375 0,17.6875 -4.125,23.484375 -4.125,5.8125 -10.28125,5.8125 -6.046875,0 -9.671875,-5.125 Q 13.1875,52.9375 13.1875,35.296875 Z"
               id="ArialMT-48" />
          </defs>
          <use
             xlink:href="#ArialMT-48"
             id="use342"
             x="0"
             y="0"
             width="100%"
             height="100%" />
        </g>
      </g>
    </g>
    <g
       id="ytick_2">
      <g
         id="line2d_2">
        <path
           clip-path="url(#p4fdd5a9366)"
           d="M 99.006628,313.64884 H 339.82058"
           style="fill:none;stroke:#cccccc;stroke-width:0.8;stroke-linecap:round"
           id="path348" />
      </g>
      <g
         id="text_8">
        <!-- 50 -->
        <g
           style="fill:#262626"
           transform="matrix(0.132,0,0,-0.132,76.025753,318.37299)"
           id="g358">
          <defs
             id="defs352">
            <path
               d="M 4.15625,18.75 13.375,19.53125 Q 14.40625,12.796875 18.140625,9.390625 21.875,6 27.15625,6 33.5,6 37.890625,10.78125 42.28125,15.578125 42.28125,23.484375 42.28125,31 38.0625,35.34375 33.84375,39.703125 27,39.703125 q -4.25,0 -7.671875,-1.9375 -3.40625,-1.921875 -5.359375,-5 l -8.25,1.078125 6.921875,36.765625 H 48.25 v -8.40625 H 19.671875 L 15.828125,42.96875 q 6.4375,4.5 13.515625,4.5 9.375,0 15.8125,-6.5 6.453125,-6.5 6.453125,-16.703125 0,-9.71875 -5.65625,-16.796875 -6.890625,-8.6875 -18.796875,-8.6875 -9.765625,0 -15.953125,5.46875 Q 5.03125,9.71875 4.15625,18.75 Z"
               id="ArialMT-53" />
          </defs>
          <use
             xlink:href="#ArialMT-53"
             id="use354"
             x="0"
             y="0"
             width="100%"
             height="100%" />
          <use
             x="55.615234"
             xlink:href="#ArialMT-48"
             id="use356"
             y="0"
             width="100%"
             height="100%" />
        </g>
      </g>
    </g>
    <g
       id="ytick_3">
      <g
         id="line2d_3">
        <path
           clip-path="url(#p4fdd5a9366)"
           d="M 99.006628,269.91687 H 339.82058"
           style="fill:none;stroke:#cccccc;stroke-width:0.8;stroke-linecap:round"
           id="path362" />
      </g>
      <g
         id="text_9">
        <!-- 100 -->
        <g
           style="fill:#262626"
           transform="matrix(0.132,0,0,-0.132,68.685316,274.64102)"
           id="g374">
          <defs
             id="defs366">
            <path
               d="m 37.25,0 h -8.78125 v 56 q -3.171875,-3.015625 -8.328125,-6.046875 -5.15625,-3.03125 -9.25,-4.546875 v 8.5 q 7.375,3.46875 12.890625,8.390625 5.515625,4.9375 7.8125,9.578125 H 37.25 Z"
               id="ArialMT-49" />
          </defs>
          <use
             xlink:href="#ArialMT-49"
             id="use368"
             x="0"
             y="0"
             width="100%"
             height="100%" />
          <use
             x="55.615234"
             xlink:href="#ArialMT-48"
             id="use370"
             y="0"
             width="100%"
             height="100%" />
          <use
             x="111.23047"
             xlink:href="#ArialMT-48"
             id="use372"
             y="0"
             width="100%"
             height="100%" />
        </g>
      </g>
    </g>
    <g
       id="ytick_4">
      <g
         id="line2d_4">
        <path
           clip-path="url(#p4fdd5a9366)"
           d="M 99.006628,226.18489 H 339.82058"
           style="fill:none;stroke:#cccccc;stroke-width:0.8;stroke-linecap:round"
           id="path378" />
      </g>
      <g
         id="text_10">
        <!-- 150 -->
        <g
           style="fill:#262626"
           transform="matrix(0.132,0,0,-0.132,68.685316,230.90905)"
           id="g387">
          <use
             xlink:href="#ArialMT-49"
             id="use381"
             x="0"
             y="0"
             width="100%"
             height="100%" />
          <use
             x="55.615234"
             xlink:href="#ArialMT-53"
             id="use383"
             y="0"
             width="100%"
             height="100%" />
          <use
             x="111.23047"
             xlink:href="#ArialMT-48"
             id="use385"
             y="0"
             width="100%"
             height="100%" />
        </g>
      </g>
    </g>
    <g
       id="ytick_5">
      <g
         id="line2d_5">
        <path
           clip-path="url(#p4fdd5a9366)"
           d="M 99.006628,182.45292 H 339.82058"
           style="fill:none;stroke:#cccccc;stroke-width:0.8;stroke-linecap:round"
           id="path391" />
      </g>
      <g
         id="text_11">
        <!-- 200 -->
        <g
           style="fill:#262626"
           transform="matrix(0.132,0,0,-0.132,68.685316,187.17707)"
           id="g403">
          <defs
             id="defs395">
            <path
               d="M 50.34375,8.453125 V 0 H 3.03125 Q 2.9375,3.171875 4.046875,6.109375 5.859375,10.9375 9.828125,15.625 13.8125,20.3125 21.34375,26.46875 q 11.671875,9.5625 15.765625,15.15625 4.109375,5.59375 4.109375,10.578125 0,5.21875 -3.75,8.796875 -3.734375,3.59375 -9.734375,3.59375 -6.34375,0 -10.15625,-3.8125 Q 13.765625,56.984375 13.71875,50.25 L 4.6875,51.171875 q 0.921875,10.109375 6.96875,15.40625 6.0625,5.296875 16.28125,5.296875 10.296875,0 16.296875,-5.71875 Q 50.25,60.453125 50.25,52 50.25,47.703125 48.484375,43.546875 46.734375,39.40625 42.65625,34.8125 38.578125,30.21875 29.109375,22.21875 21.1875,15.578125 18.9375,13.203125 q -2.234375,-2.359375 -3.703125,-4.75 z"
               id="ArialMT-50" />
          </defs>
          <use
             xlink:href="#ArialMT-50"
             id="use397"
             x="0"
             y="0"
             width="100%"
             height="100%" />
          <use
             x="55.615234"
             xlink:href="#ArialMT-48"
             id="use399"
             y="0"
             width="100%"
             height="100%" />
          <use
             x="111.23047"
             xlink:href="#ArialMT-48"
             id="use401"
             y="0"
             width="100%"
             height="100%" />
        </g>
      </g>
    </g>
    <g
       id="ytick_6">
      <g
         id="line2d_6">
        <path
           clip-path="url(#p4fdd5a9366)"
           d="M 99.006628,138.72095 H 339.82058"
           style="fill:none;stroke:#cccccc;stroke-width:0.8;stroke-linecap:round"
           id="path407" />
      </g>
      <g
         id="text_12">
        <!-- 250 -->
        <g
           style="fill:#262626"
           transform="matrix(0.132,0,0,-0.132,68.685316,143.4451)"
           id="g416">
          <use
             xlink:href="#ArialMT-50"
             id="use410"
             x="0"
             y="0"
             width="100%"
             height="100%" />
          <use
             x="55.615234"
             xlink:href="#ArialMT-53"
             id="use412"
             y="0"
             width="100%"
             height="100%" />
          <use
             x="111.23047"
             xlink:href="#ArialMT-48"
             id="use414"
             y="0"
             width="100%"
             height="100%" />
        </g>
      </g>
    </g>
    <g
       id="ytick_7">
      <g
         id="line2d_7">
        <path
           clip-path="url(#p4fdd5a9366)"
           d="M 99.006628,94.988973 H 339.82058"
           style="fill:none;stroke:#cccccc;stroke-width:0.8;stroke-linecap:round"
           id="path420" />
      </g>
      <g
         id="text_13">
        <!-- 300 -->
        <g
           style="fill:#262626"
           transform="matrix(0.132,0,0,-0.132,68.685316,99.713129)"
           id="g432">
          <defs
             id="defs424">
            <path
               d="m 4.203125,18.890625 8.78125,1.171875 Q 14.5,12.59375 18.140625,9.296875 21.78125,6 27,6 33.203125,6 37.46875,10.296875 41.75,14.59375 41.75,20.953125 q 0,6.046875 -3.953125,9.96875 -3.953125,3.9375 -10.0625,3.9375 -2.484375,0 -6.203125,-0.96875 l 0.984375,7.71875 Q 23.390625,41.5 23.921875,41.5 q 5.625,0 10.109375,2.921875 4.5,2.9375 4.5,9.046875 0,4.828125 -3.28125,8 -3.265625,3.1875 -8.4375,3.1875 -5.125,0 -8.546875,-3.234375 -3.421875,-3.21875 -4.390625,-9.65625 l -8.796875,1.5625 q 1.609375,8.828125 7.3125,13.6875 5.71875,4.859375 14.21875,4.859375 5.859375,0 10.78125,-2.515625 4.9375,-2.515625 7.546875,-6.859375 2.625,-4.34375 2.625,-9.234375 0,-4.625 -2.5,-8.4375 -2.484375,-3.8125 -7.359375,-6.0625 6.34375,-1.453125 9.859375,-6.078125 3.515625,-4.609375 3.515625,-11.546875 0,-9.375 -6.84375,-15.890625 -6.828125,-6.515625 -17.28125,-6.515625 -9.421875,0 -15.65625,5.609375 -6.21875,5.625 -7.09375,14.546875 z"
               id="ArialMT-51" />
          </defs>
          <use
             xlink:href="#ArialMT-51"
             id="use426"
             x="0"
             y="0"
             width="100%"
             height="100%" />
          <use
             x="55.615234"
             xlink:href="#ArialMT-48"
             id="use428"
             y="0"
             width="100%"
             height="100%" />
          <use
             x="111.23047"
             xlink:href="#ArialMT-48"
             id="use430"
             y="0"
             width="100%"
             height="100%" />
        </g>
      </g>
    </g>
    <g
       id="patch_3"
       transform="translate(6)">
      <path
         clip-path="url(#p4fdd5a9366)"
         d="m 103.02019,357.38081 h 32.10853 V 250.6748 h -32.10853 z"
         style="fill:#1c1c64;stroke:#ffffff;stroke-width:0.8;stroke-linejoin:miter"
         id="path502" />
    </g>
    <g
       id="patch_4">
      <path
         clip-path="url(#p4fdd5a9366)"
         d="m 143.15585,357.38081 h 32.10853 V 239.30448 h -32.10853 z"
         style="fill:#397439;stroke:#ffffff;stroke-width:0.8;stroke-linejoin:miter"
         id="path505" />
    </g>
    <g
       id="patch_5"
       transform="translate(-6)">
      <path
         clip-path="url(#p4fdd5a9366)"
         d="m 183.29151,357.38081 h 32.10853 v -119.8256 h -32.10853 z"
         style="fill:#cbcccb;stroke:#ffffff;stroke-width:0.8;stroke-linejoin:miter"
         id="path508" />
    </g>
    <path
       clip-path="url(#p4fdd5a9366)"
       d="M 223.42717,357.38081 H 255.5357 V 300.52925 H 223.42717 Z"
       style="fill:#1c1c64;stroke:#ffffff;stroke-width:0.8;stroke-linejoin:miter"
       id="path511"
       transform="translate(6)" />
    <g
       id="patch_7">
      <path
         clip-path="url(#p4fdd5a9366)"
         d="m 263.56283,357.38081 h 32.10852 v -72.59507 h -32.10852 z"
         style="fill:#397439;stroke:#ffffff;stroke-width:0.8;stroke-linejoin:miter"
         id="path514" />
    </g>
    <g
       id="patch_8"
       transform="translate(-6)">
      <path
         clip-path="url(#p4fdd5a9366)"
         d="m 303.69849,357.38081 h 32.10852 v -77.40559 h -32.10852 z"
         style="fill:#cbcccb;stroke:#ffffff;stroke-width:0.8;stroke-linejoin:miter"
         id="path517" />
    </g>
    <path
       clip-path="url(#p4fdd5a9366)"
       d="M 119.07446,286.97667 V 214.37292"
       style="fill:none;stroke:#696969;stroke-width:1.2"
       id="path520"
       transform="translate(6)" />
    <path
       clip-path="url(#p4fdd5a9366)"
       d="M 159.21012,273.45003 V 205.15894"
       style="fill:none;stroke:#696969;stroke-width:1.2"
       id="path522" />
    <path
       clip-path="url(#p4fdd5a9366)"
       d="M 199.34577,270.97978 V 204.13064"
       style="fill:none;stroke:#696969;stroke-width:1.2"
       id="path524"
       transform="translate(-6)" />
    <path
       clip-path="url(#p4fdd5a9366)"
       d="M 239.48143,341.04212 V 260.01638"
       style="fill:none;stroke:#696969;stroke-width:1.2"
       id="path526"
       transform="translate(6)" />
    <path
       clip-path="url(#p4fdd5a9366)"
       d="M 279.61709,329.73971 V 239.83176"
       style="fill:none;stroke:#696969;stroke-width:1.2"
       id="path528" />
    <path
       clip-path="url(#p4fdd5a9366)"
       d="M 319.75275,326.65611 V 233.29433"
       style="fill:none;stroke:#696969;stroke-width:1.2"
       id="path530"
       transform="translate(-6)" />
    <use
       style="fill:#696969;stroke:#696969"
       x="119.07446"
       xlink:href="#m3eaed11be1"
       y="286.97668"
       id="use554"
       width="100%"
       height="100%"
       transform="translate(6)" />
    <use
       style="fill:#696969;stroke:#696969"
       x="159.21011"
       xlink:href="#m3eaed11be1"
       y="273.45004"
       id="use556"
       width="100%"
       height="100%" />
    <use
       style="fill:#696969;stroke:#696969"
       x="199.34578"
       xlink:href="#m3eaed11be1"
       y="270.97977"
       id="use558"
       width="100%"
       height="100%"
       transform="translate(-6)" />
    <use
       style="fill:#696969;stroke:#696969"
       x="239.48143"
       xlink:href="#m3eaed11be1"
       y="341.04211"
       id="use560"
       width="100%"
       height="100%"
       transform="translate(6)" />
    <use
       style="fill:#696969;stroke:#696969"
       x="279.6171"
       xlink:href="#m3eaed11be1"
       y="329.73972"
       id="use562"
       width="100%"
       height="100%" />
    <use
       style="fill:#696969;stroke:#696969"
       x="319.75275"
       xlink:href="#m3eaed11be1"
       y="326.6561"
       id="use564"
       width="100%"
       height="100%"
       transform="translate(-6)" />
    <use
       style="fill:#696969;stroke:#696969"
       x="119.07446"
       xlink:href="#m3eaed11be1"
       y="214.37292"
       id="use569"
       width="100%"
       height="100%"
       transform="translate(6)" />
    <use
       style="fill:#696969;stroke:#696969"
       x="159.21011"
       xlink:href="#m3eaed11be1"
       y="205.15894"
       id="use571"
       width="100%"
       height="100%" />
    <use
       style="fill:#696969;stroke:#696969"
       x="199.34578"
       xlink:href="#m3eaed11be1"
       y="204.13063"
       id="use573"
       width="100%"
       height="100%"
       transform="translate(-6)" />
    <use
       style="fill:#696969;stroke:#696969"
       x="239.48143"
       xlink:href="#m3eaed11be1"
       y="260.01639"
       id="use575"
       width="100%"
       height="100%"
       transform="translate(6)" />
    <use
       style="fill:#696969;stroke:#696969"
       x="279.6171"
       xlink:href="#m3eaed11be1"
       y="239.83176"
       id="use577"
       width="100%"
       height="100%" />
    <use
       style="fill:#696969;stroke:#696969"
       x="319.75275"
       xlink:href="#m3eaed11be1"
       y="233.29433"
       id="use579"
       width="100%"
       height="100%"
       transform="translate(-6)" />
    <g
       id="patch_9">
      <path
         d="M 99.006628,357.38081 V 67.175437"
         style="fill:none;stroke:#cccccc;stroke-linecap:square;stroke-linejoin:miter"
         id="path585" />
    </g>
    <g
       id="patch_10">
      <path
         d="M 99.006628,357.38081 H 339.82058"
         style="fill:none;stroke:#cccccc;stroke-linecap:square;stroke-linejoin:miter"
         id="path588" />
    </g>
    <g
       id="PathCollection_1"
       transform="translate(6)">
      <defs
         id="defs592">
        <path
           d="M 0,2.5 C 0.663008,2.5 1.29895,2.236584 1.767767,1.767767 2.236584,1.29895 2.5,0.663008 2.5,0 2.5,-0.663008 2.236584,-1.29895 1.767767,-1.767767 1.29895,-2.236584 0.663008,-2.5 0,-2.5 c -0.663008,0 -1.29895,0.263416 -1.767767,0.732233 C -2.236584,-1.29895 -2.5,-0.663008 -2.5,0 c 0,0.663008 0.263416,1.29895 0.732233,1.767767 C -1.29895,2.236584 -0.663008,2.5 0,2.5 Z"
           id="m42c9f402c1" />
      </defs>
      <g
         clip-path="url(#p4fdd5a9366)"
         id="g596">
        <use
           style="fill:#ff4500;fill-opacity:0.9"
           x="119.07446"
           xlink:href="#m42c9f402c1"
           y="102.86073"
           id="use594"
           width="100%"
           height="100%" />
      </g>
    </g>
    <g
       id="PathCollection_2">
      <g
         clip-path="url(#p4fdd5a9366)"
         id="g601">
        <use
           style="fill:#ff4500;fill-opacity:0.9"
           x="159.21011"
           xlink:href="#m42c9f402c1"
           y="140.47023"
           id="use599"
           width="100%"
           height="100%" />
      </g>
    </g>
    <g
       id="PathCollection_3"
       transform="translate(-6)">
      <g
         clip-path="url(#p4fdd5a9366)"
         id="g606">
        <use
           style="fill:#ff4500;fill-opacity:0.9"
           x="199.34578"
           xlink:href="#m42c9f402c1"
           y="122.1028"
           id="use604"
           width="100%"
           height="100%" />
      </g>
    </g>
    <g
       id="PathCollection_4"
       transform="translate(6)">
      <g
         clip-path="url(#p4fdd5a9366)"
         id="g611">
        <use
           style="fill:#ff4500;fill-opacity:0.9"
           x="239.48143"
           xlink:href="#m42c9f402c1"
           y="124.72672"
           id="use609"
           width="100%"
           height="100%" />
      </g>
    </g>
    <g
       id="PathCollection_5">
      <g
         clip-path="url(#p4fdd5a9366)"
         id="g616">
        <use
           style="fill:#ff4500;fill-opacity:0.9"
           x="279.6171"
           xlink:href="#m42c9f402c1"
           y="88.866493"
           id="use614"
           width="100%"
           height="100%" />
      </g>
    </g>
    <g
       id="PathCollection_6"
       transform="translate(-6)">
      <g
         clip-path="url(#p4fdd5a9366)"
         id="g621">
        <use
           style="fill:#ff4500;fill-opacity:0.9"
           x="319.75275"
           xlink:href="#m42c9f402c1"
           y="80.994743"
           id="use619"
           width="100%"
           height="100%" />
      </g>
    </g>
    <g
       id="PathCollection_7"
       transform="translate(6)">
      <defs
         id="defs625">
        <path
           d="M 0,2.5 C 0.663008,2.5 1.29895,2.236584 1.767767,1.767767 2.236584,1.29895 2.5,0.663008 2.5,0 2.5,-0.663008 2.236584,-1.29895 1.767767,-1.767767 1.29895,-2.236584 0.663008,-2.5 0,-2.5 c -0.663008,0 -1.29895,0.263416 -1.767767,0.732233 C -2.236584,-1.29895 -2.5,-0.663008 -2.5,0 c 0,0.663008 0.263416,1.29895 0.732233,1.767767 C -1.29895,2.236584 -0.663008,2.5 0,2.5 Z"
           id="m1f04af7535" />
      </defs>
      <g
         clip-path="url(#p4fdd5a9366)"
         id="g629">
        <use
           style="fill:#00ced1;fill-opacity:0.9"
           x="119.07446"
           xlink:href="#m1f04af7535"
           y="330.267"
           id="use627"
           width="100%"
           height="100%" />
      </g>
    </g>
    <g
       id="PathCollection_8">
      <g
         clip-path="url(#p4fdd5a9366)"
         id="g634">
        <use
           style="fill:#00ced1;fill-opacity:0.9"
           x="159.21011"
           xlink:href="#m1f04af7535"
           y="322.39523"
           id="use632"
           width="100%"
           height="100%" />
      </g>
    </g>
    <g
       id="PathCollection_9"
       transform="translate(-6)">
      <g
         clip-path="url(#p4fdd5a9366)"
         id="g639">
        <use
           style="fill:#00ced1;fill-opacity:0.9"
           x="199.34578"
           xlink:href="#m1f04af7535"
           y="324.1445"
           id="use637"
           width="100%"
           height="100%" />
      </g>
    </g>
    <g
       id="PathCollection_10"
       transform="translate(6)">
      <g
         clip-path="url(#p4fdd5a9366)"
         id="g644">
        <use
           style="fill:#00ced1;fill-opacity:0.9"
           x="239.48143"
           xlink:href="#m1f04af7535"
           y="350.3837"
           id="use642"
           width="100%"
           height="100%" />
      </g>
    </g>
    <g
       id="PathCollection_11">
      <g
         clip-path="url(#p4fdd5a9366)"
         id="g649">
        <use
           style="fill:#00ced1;fill-opacity:0.9"
           x="279.6171"
           xlink:href="#m1f04af7535"
           y="346.0105"
           id="use647"
           width="100%"
           height="100%" />
      </g>
    </g>
    <g
       id="PathCollection_12"
       transform="translate(-6)">
      <g
         clip-path="url(#p4fdd5a9366)"
         id="g654">
        <use
           style="fill:#00ced1;fill-opacity:0.9"
           x="319.75275"
           xlink:href="#m1f04af7535"
           y="340.76266"
           id="use652"
           width="100%"
           height="100%" />
      </g>
    </g>
  </g>
  <defs
     id="defs789">
    <clipPath
       id="p4fdd5a9366">
      <rect
         height="290.205375"
         width="240.813951"
         x="99.006628"
         y="67.175437"
         id="rect786" />
    </clipPath>
  </defs>
</svg>
