<?xml version="1.0" encoding="UTF-8" standalone="no"?>
<svg
   xmlns:dc="http://purl.org/dc/elements/1.1/"
   xmlns:cc="http://creativecommons.org/ns#"
   xmlns:rdf="http://www.w3.org/1999/02/22-rdf-syntax-ns#"
   xmlns:svg="http://www.w3.org/2000/svg"
   xmlns="http://www.w3.org/2000/svg"
   xmlns:xlink="http://www.w3.org/1999/xlink"
   xmlns:sodipodi="http://sodipodi.sourceforge.net/DTD/sodipodi-0.dtd"
   xmlns:inkscape="http://www.inkscape.org/namespaces/inkscape"
   height="474.770782pt"
   version="1.1"
   viewBox="0 0 447.823157 474.770782"
   width="447.823157pt"
   id="svg736"
   sodipodi:docname="perMb.svg"
   inkscape:version="1.0.1 (3bc2e813f5, 2020-09-07)">
  <sodipodi:namedview
     pagecolor="#ffffff"
     bordercolor="#666666"
     borderopacity="1"
     objecttolerance="10"
     gridtolerance="10"
     guidetolerance="10"
     inkscape:pageopacity="0"
     inkscape:pageshadow="2"
     inkscape:window-width="2400"
     inkscape:window-height="1271"
     id="namedview738"
     showgrid="false"
     inkscape:zoom="1.3395938"
     inkscape:cx="298.54877"
     inkscape:cy="286.65406"
     inkscape:window-x="-9"
     inkscape:window-y="-9"
     inkscape:window-maximized="1"
     inkscape:current-layer="svg736" />
  <metadata
     id="metadata2">
    <rdf:RDF>
      <cc:Work>
        <dc:type
           rdf:resource="http://purl.org/dc/dcmitype/StillImage" />
        <dc:date>2022-12-28T22:16:51.743494</dc:date>
        <dc:format>image/svg+xml</dc:format>
        <dc:creator>
          <cc:Agent>
            <dc:title>Matplotlib v3.3.2, https://matplotlib.org/</dc:title>
          </cc:Agent>
        </dc:creator>
      </cc:Work>
    </rdf:RDF>
  </metadata>
  <defs
     id="defs6">
    <style
       type="text/css"
       id="style4">*{stroke-linecap:butt;stroke-linejoin:round;}</style>
    <defs
       id="defs496">
      <path
         d="M 2,0 H -2"
         id="m844fba8b26"
         style="stroke:#696969" />
    </defs>
  </defs>
  <g
     id="line2d_9">
    <path
       clip-path="url(#pa494b15afb)"
       style="fill:none;stroke:#424242;stroke-width:2.16;stroke-linecap:round"
       id="path477"
       d="" />
  </g>
  <g
     id="line2d_10">
    <path
       clip-path="url(#pa494b15afb)"
       style="fill:none;stroke:#424242;stroke-width:2.16;stroke-linecap:round"
       id="path480"
       d="" />
  </g>
  <g
     id="line2d_11">
    <path
       clip-path="url(#pa494b15afb)"
       style="fill:none;stroke:#424242;stroke-width:2.16;stroke-linecap:round"
       id="path483"
       d="" />
  </g>
  <g
     id="line2d_12">
    <path
       clip-path="url(#pa494b15afb)"
       style="fill:none;stroke:#424242;stroke-width:2.16;stroke-linecap:round"
       id="path486"
       d="" />
  </g>
  <g
     id="line2d_13">
    <path
       clip-path="url(#pa494b15afb)"
       style="fill:none;stroke:#424242;stroke-width:2.16;stroke-linecap:round"
       id="path489"
       d="" />
  </g>
  <g
     id="line2d_14">
    <path
       clip-path="url(#pa494b15afb)"
       style="fill:none;stroke:#424242;stroke-width:2.16;stroke-linecap:round"
       id="path492"
       d="" />
  </g>
  <g
     id="line2d_17" />
  <g
     id="g2223">
    <path
       d="M 59.660508,357.77144 H 310.63933 V 67.175437 H 59.660508 Z"
       style="fill:#ffffff"
       id="path11" />
    <g
       id="ytick_1">
      <g
         id="line2d_1">
        <path
           clip-path="url(#pa494b15afb)"
           d="M 59.660508,357.77144 H 310.63933"
           style="fill:none;stroke:#cccccc;stroke-width:0.8;stroke-linecap:round"
           id="path268" />
      </g>
      <g
         id="text_7">
        <!-- 0 -->
        <g
           style="fill:#262626"
           transform="matrix(0.132,0,0,-0.132,44.020071,362.49559)"
           id="g276">
          <defs
             id="defs272">
            <path
               d="m 4.15625,35.296875 q 0,12.703125 2.609375,20.4375 2.609375,7.75 7.75,11.9375 5.15625,4.203125 12.96875,4.203125 5.765625,0 10.109375,-2.328125 4.34375,-2.3125 7.171875,-6.6875 Q 47.609375,58.5 49.21875,52.21875 q 1.609375,-6.265625 1.609375,-16.921875 0,-12.59375 -2.59375,-20.328125 Q 45.65625,7.234375 40.5,3 35.359375,-1.21875 27.484375,-1.21875 q -10.34375,0 -16.25,7.421875 -7.078125,8.9375 -7.078125,29.09375 z m 9.03125,0 q 0,-17.625 4.125,-23.46875 Q 21.4375,6 27.484375,6 q 6.0625,0 10.1875,5.859375 4.125,5.859375 4.125,23.4375 0,17.6875 -4.125,23.484375 -4.125,5.8125 -10.28125,5.8125 -6.046875,0 -9.671875,-5.125 Q 13.1875,52.9375 13.1875,35.296875 Z"
               id="ArialMT-48" />
          </defs>
          <use
             xlink:href="#ArialMT-48"
             id="use274"
             x="0"
             y="0"
             width="100%"
             height="100%" />
        </g>
      </g>
    </g>
    <g
       id="ytick_2">
      <g
         id="line2d_2">
        <path
           clip-path="url(#pa494b15afb)"
           d="M 59.660508,316.30691 H 310.63933"
           style="fill:none;stroke:#cccccc;stroke-width:0.8;stroke-linecap:round"
           id="path280" />
      </g>
      <g
         id="text_8">
        <!-- 10 -->
        <g
           style="fill:#262626"
           transform="matrix(0.132,0,0,-0.132,36.679633,321.03106)"
           id="g290">
          <defs
             id="defs284">
            <path
               d="m 37.25,0 h -8.78125 v 56 q -3.171875,-3.015625 -8.328125,-6.046875 -5.15625,-3.03125 -9.25,-4.546875 v 8.5 q 7.375,3.46875 12.890625,8.390625 5.515625,4.9375 7.8125,9.578125 H 37.25 Z"
               id="ArialMT-49" />
          </defs>
          <use
             xlink:href="#ArialMT-49"
             id="use286"
             x="0"
             y="0"
             width="100%"
             height="100%" />
          <use
             x="55.615234"
             xlink:href="#ArialMT-48"
             id="use288"
             y="0"
             width="100%"
             height="100%" />
        </g>
      </g>
    </g>
    <g
       id="ytick_3">
      <g
         id="line2d_3">
        <path
           clip-path="url(#pa494b15afb)"
           d="M 59.660508,274.84238 H 310.63933"
           style="fill:none;stroke:#cccccc;stroke-width:0.8;stroke-linecap:round"
           id="path294" />
      </g>
      <g
         id="text_9">
        <!-- 20 -->
        <g
           style="fill:#262626"
           transform="matrix(0.132,0,0,-0.132,36.679633,279.56653)"
           id="g304">
          <defs
             id="defs298">
            <path
               d="M 50.34375,8.453125 V 0 H 3.03125 Q 2.9375,3.171875 4.046875,6.109375 5.859375,10.9375 9.828125,15.625 13.8125,20.3125 21.34375,26.46875 q 11.671875,9.5625 15.765625,15.15625 4.109375,5.59375 4.109375,10.578125 0,5.21875 -3.75,8.796875 -3.734375,3.59375 -9.734375,3.59375 -6.34375,0 -10.15625,-3.8125 Q 13.765625,56.984375 13.71875,50.25 L 4.6875,51.171875 q 0.921875,10.109375 6.96875,15.40625 6.0625,5.296875 16.28125,5.296875 10.296875,0 16.296875,-5.71875 Q 50.25,60.453125 50.25,52 50.25,47.703125 48.484375,43.546875 46.734375,39.40625 42.65625,34.8125 38.578125,30.21875 29.109375,22.21875 21.1875,15.578125 18.9375,13.203125 q -2.234375,-2.359375 -3.703125,-4.75 z"
               id="ArialMT-50" />
          </defs>
          <use
             xlink:href="#ArialMT-50"
             id="use300"
             x="0"
             y="0"
             width="100%"
             height="100%" />
          <use
             x="55.615234"
             xlink:href="#ArialMT-48"
             id="use302"
             y="0"
             width="100%"
             height="100%" />
        </g>
      </g>
    </g>
    <g
       id="ytick_4">
      <g
         id="line2d_4">
        <path
           clip-path="url(#pa494b15afb)"
           d="M 59.660508,233.37785 H 310.63933"
           style="fill:none;stroke:#cccccc;stroke-width:0.8;stroke-linecap:round"
           id="path308" />
      </g>
      <g
         id="text_10">
        <!-- 30 -->
        <g
           style="fill:#262626"
           transform="matrix(0.132,0,0,-0.132,36.679633,238.10201)"
           id="g318">
          <defs
             id="defs312">
            <path
               d="m 4.203125,18.890625 8.78125,1.171875 Q 14.5,12.59375 18.140625,9.296875 21.78125,6 27,6 33.203125,6 37.46875,10.296875 41.75,14.59375 41.75,20.953125 q 0,6.046875 -3.953125,9.96875 -3.953125,3.9375 -10.0625,3.9375 -2.484375,0 -6.203125,-0.96875 l 0.984375,7.71875 Q 23.390625,41.5 23.921875,41.5 q 5.625,0 10.109375,2.921875 4.5,2.9375 4.5,9.046875 0,4.828125 -3.28125,8 -3.265625,3.1875 -8.4375,3.1875 -5.125,0 -8.546875,-3.234375 -3.421875,-3.21875 -4.390625,-9.65625 l -8.796875,1.5625 q 1.609375,8.828125 7.3125,13.6875 5.71875,4.859375 14.21875,4.859375 5.859375,0 10.78125,-2.515625 4.9375,-2.515625 7.546875,-6.859375 2.625,-4.34375 2.625,-9.234375 0,-4.625 -2.5,-8.4375 -2.484375,-3.8125 -7.359375,-6.0625 6.34375,-1.453125 9.859375,-6.078125 3.515625,-4.609375 3.515625,-11.546875 0,-9.375 -6.84375,-15.890625 -6.828125,-6.515625 -17.28125,-6.515625 -9.421875,0 -15.65625,5.609375 -6.21875,5.625 -7.09375,14.546875 z"
               id="ArialMT-51" />
          </defs>
          <use
             xlink:href="#ArialMT-51"
             id="use314"
             x="0"
             y="0"
             width="100%"
             height="100%" />
          <use
             x="55.615234"
             xlink:href="#ArialMT-48"
             id="use316"
             y="0"
             width="100%"
             height="100%" />
        </g>
      </g>
    </g>
    <g
       id="ytick_5">
      <g
         id="line2d_5">
        <path
           clip-path="url(#pa494b15afb)"
           d="M 59.660508,191.91332 H 310.63933"
           style="fill:none;stroke:#cccccc;stroke-width:0.8;stroke-linecap:round"
           id="path322" />
      </g>
      <g
         id="text_11">
        <!-- 40 -->
        <g
           style="fill:#262626"
           transform="matrix(0.132,0,0,-0.132,36.679633,196.63748)"
           id="g332">
          <defs
             id="defs326">
            <path
               d="m 32.328125,0 v 17.140625 h -31.0625 v 8.0625 l 32.671875,46.375 h 7.171875 v -46.375 h 9.671875 v -8.0625 H 41.109375 V 0 Z m 0,25.203125 V 57.46875 L 9.90625,25.203125 Z"
               id="ArialMT-52" />
          </defs>
          <use
             xlink:href="#ArialMT-52"
             id="use328"
             x="0"
             y="0"
             width="100%"
             height="100%" />
          <use
             x="55.615234"
             xlink:href="#ArialMT-48"
             id="use330"
             y="0"
             width="100%"
             height="100%" />
        </g>
      </g>
    </g>
    <g
       id="ytick_6">
      <g
         id="line2d_6">
        <path
           clip-path="url(#pa494b15afb)"
           d="M 59.660508,150.44879 H 310.63933"
           style="fill:none;stroke:#cccccc;stroke-width:0.8;stroke-linecap:round"
           id="path336" />
      </g>
      <g
         id="text_12">
        <!-- 50 -->
        <g
           style="fill:#262626"
           transform="matrix(0.132,0,0,-0.132,36.679633,155.17295)"
           id="g346">
          <defs
             id="defs340">
            <path
               d="M 4.15625,18.75 13.375,19.53125 Q 14.40625,12.796875 18.140625,9.390625 21.875,6 27.15625,6 33.5,6 37.890625,10.78125 42.28125,15.578125 42.28125,23.484375 42.28125,31 38.0625,35.34375 33.84375,39.703125 27,39.703125 q -4.25,0 -7.671875,-1.9375 -3.40625,-1.921875 -5.359375,-5 l -8.25,1.078125 6.921875,36.765625 H 48.25 v -8.40625 H 19.671875 L 15.828125,42.96875 q 6.4375,4.5 13.515625,4.5 9.375,0 15.8125,-6.5 6.453125,-6.5 6.453125,-16.703125 0,-9.71875 -5.65625,-16.796875 -6.890625,-8.6875 -18.796875,-8.6875 -9.765625,0 -15.953125,5.46875 Q 5.03125,9.71875 4.15625,18.75 Z"
               id="ArialMT-53" />
          </defs>
          <use
             xlink:href="#ArialMT-53"
             id="use342"
             x="0"
             y="0"
             width="100%"
             height="100%" />
          <use
             x="55.615234"
             xlink:href="#ArialMT-48"
             id="use344"
             y="0"
             width="100%"
             height="100%" />
        </g>
      </g>
    </g>
    <g
       id="ytick_7">
      <g
         id="line2d_7">
        <path
           clip-path="url(#pa494b15afb)"
           d="M 59.660508,108.98426 H 310.63933"
           style="fill:none;stroke:#cccccc;stroke-width:0.8;stroke-linecap:round"
           id="path350" />
      </g>
      <g
         id="text_13">
        <!-- 60 -->
        <g
           style="fill:#262626"
           transform="matrix(0.132,0,0,-0.132,36.679633,113.70842)"
           id="g360">
          <defs
             id="defs354">
            <path
               d="M 49.75,54.046875 41.015625,53.375 q -1.171875,5.171875 -3.3125,7.515625 -3.578125,3.765625 -8.796875,3.765625 -4.203125,0 -7.375,-2.34375 Q 17.390625,59.28125 14.984375,53.46875 12.59375,47.65625 12.5,36.921875 15.671875,41.75 20.265625,44.09375 q 4.59375,2.34375 9.625,2.34375 8.78125,0 14.953125,-6.46875 Q 51.03125,33.5 51.03125,23.25 51.03125,16.5 48.125,10.71875 45.21875,4.9375 40.140625,1.859375 35.0625,-1.21875 28.609375,-1.21875 17.625,-1.21875 10.6875,6.859375 3.765625,14.9375 3.765625,33.5 q 0,20.75 7.65625,30.171875 6.6875,8.203125 18.015625,8.203125 8.453125,0 13.84375,-4.734375 Q 48.6875,62.40625 49.75,54.046875 Z M 13.875,23.1875 q 0,-4.53125 1.921875,-8.6875 Q 17.71875,10.359375 21.1875,8.171875 24.65625,6 28.46875,6 q 5.5625,0 9.5625,4.484375 4.015625,4.5 4.015625,12.21875 0,7.421875 -3.96875,11.6875 -3.953125,4.28125 -9.953125,4.28125 -5.953125,0 -10.109375,-4.28125 Q 13.875,30.125 13.875,23.1875 Z"
               id="ArialMT-54" />
          </defs>
          <use
             xlink:href="#ArialMT-54"
             id="use356"
             x="0"
             y="0"
             width="100%"
             height="100%" />
          <use
             x="55.615234"
             xlink:href="#ArialMT-48"
             id="use358"
             y="0"
             width="100%"
             height="100%" />
        </g>
      </g>
    </g>
    <g
       id="ytick_8">
      <g
         id="line2d_8">
        <path
           clip-path="url(#pa494b15afb)"
           d="M 59.660508,67.519733 H 310.63933"
           style="fill:none;stroke:#cccccc;stroke-width:0.8;stroke-linecap:round"
           id="path364" />
      </g>
      <g
         id="text_14">
        <!-- 70 -->
        <g
           style="fill:#262626"
           transform="matrix(0.132,0,0,-0.132,36.679633,72.243889)"
           id="g374">
          <defs
             id="defs368">
            <path
               d="m 4.734375,62.203125 v 8.453125 h 46.34375 V 63.8125 Q 44.234375,56.546875 37.515625,44.484375 30.8125,32.421875 27.15625,19.671875 24.515625,10.6875 23.78125,0 H 14.75 q 0.140625,8.453125 3.3125,20.40625 3.171875,11.96875 9.109375,23.078125 5.9375,11.109375 12.625,18.71875 z"
               id="ArialMT-55" />
          </defs>
          <use
             xlink:href="#ArialMT-55"
             id="use370"
             x="0"
             y="0"
             width="100%"
             height="100%" />
          <use
             x="55.615234"
             xlink:href="#ArialMT-48"
             id="use372"
             y="0"
             width="100%"
             height="100%" />
        </g>
      </g>
    </g>
    <g
       id="patch_3"
       transform="translate(6)">
      <path
         clip-path="url(#pa494b15afb)"
         d="M 63.843489,357.77144 H 97.307331 V 197.08561 H 63.843489 Z"
         style="fill:#1c1c64;stroke:#ffffff;stroke-width:0.8;stroke-linejoin:miter"
         id="path446" />
    </g>
    <g
       id="patch_4">
      <path
         clip-path="url(#pa494b15afb)"
         d="m 105.67329,357.77144 h 33.46384 V 200.82137 h -33.46384 z"
         style="fill:#397439;stroke:#ffffff;stroke-width:0.8;stroke-linejoin:miter"
         id="path449" />
    </g>
    <g
       id="patch_5"
       transform="translate(-6)">
      <path
         clip-path="url(#pa494b15afb)"
         d="m 147.50309,357.77144 h 33.46385 v -156.604 h -33.46385 z"
         style="fill:#cbcccb;stroke:#ffffff;stroke-width:0.8;stroke-linejoin:miter"
         id="path452" />
    </g>
    <g
       id="patch_6"
       transform="translate(6)">
      <path
         clip-path="url(#pa494b15afb)"
         d="m 189.3329,357.77144 h 33.46384 V 267.77145 H 189.3329 Z"
         style="fill:#1c1c64;stroke:#ffffff;stroke-width:0.8;stroke-linejoin:miter"
         id="path455" />
    </g>
    <g
       id="patch_7">
      <path
         clip-path="url(#pa494b15afb)"
         d="m 231.1627,357.77144 h 33.46384 V 270.34413 H 231.1627 Z"
         style="fill:#397439;stroke:#ffffff;stroke-width:0.8;stroke-linejoin:miter"
         id="path458" />
    </g>
    <g
       id="patch_8"
       transform="translate(-6)">
      <path
         clip-path="url(#pa494b15afb)"
         d="m 272.9925,357.77144 h 33.46385 V 261.347 H 272.9925 Z"
         style="fill:#cbcccb;stroke:#ffffff;stroke-width:0.8;stroke-linejoin:miter"
         id="path461" />
    </g>
    <path
       clip-path="url(#pa494b15afb)"
       d="M 80.57541,221.35583 V 172.81539"
       style="fill:none;stroke:#696969;stroke-width:1.2"
       id="path464"
       transform="translate(6)" />
    <path
       clip-path="url(#pa494b15afb)"
       d="M 122.40521,218.39947 V 183.24326"
       style="fill:none;stroke:#696969;stroke-width:1.2"
       id="path466" />
    <path
       clip-path="url(#pa494b15afb)"
       d="M 164.23502,219.76753 V 182.56734"
       style="fill:none;stroke:#696969;stroke-width:1.2"
       id="path468"
       transform="translate(-6)" />
    <path
       clip-path="url(#pa494b15afb)"
       d="M 206.06482,300.1265 V 235.41639"
       style="fill:none;stroke:#696969;stroke-width:1.2"
       id="path470"
       transform="translate(6)" />
    <path
       clip-path="url(#pa494b15afb)"
       d="M 247.89462,307.77324 V 232.91502"
       style="fill:none;stroke:#696969;stroke-width:1.2"
       id="path472" />
    <path
       clip-path="url(#pa494b15afb)"
       d="m 289.72443,298.96925 v -75.2445"
       style="fill:none;stroke:#696969;stroke-width:1.2"
       id="path474"
       transform="translate(-6)" />
    <use
       style="fill:#696969;stroke:#696969"
       x="80.575409"
       xlink:href="#m844fba8b26"
       y="221.35583"
       id="use498"
       width="100%"
       height="100%"
       transform="translate(6)" />
    <use
       style="fill:#696969;stroke:#696969"
       x="122.40521"
       xlink:href="#m844fba8b26"
       y="218.39948"
       id="use500"
       width="100%"
       height="100%" />
    <use
       style="fill:#696969;stroke:#696969"
       x="164.23502"
       xlink:href="#m844fba8b26"
       y="219.76753"
       id="use502"
       width="100%"
       height="100%"
       transform="translate(-6)" />
    <use
       style="fill:#696969;stroke:#696969"
       x="206.06482"
       xlink:href="#m844fba8b26"
       y="300.1265"
       id="use504"
       width="100%"
       height="100%"
       transform="translate(6)" />
    <use
       style="fill:#696969;stroke:#696969"
       x="247.89462"
       xlink:href="#m844fba8b26"
       y="307.77322"
       id="use506"
       width="100%"
       height="100%" />
    <use
       style="fill:#696969;stroke:#696969"
       x="289.72443"
       xlink:href="#m844fba8b26"
       y="298.96927"
       id="use508"
       width="100%"
       height="100%"
       transform="translate(-6)" />
    <use
       style="fill:#696969;stroke:#696969"
       x="80.575409"
       xlink:href="#m844fba8b26"
       y="172.8154"
       id="use513"
       width="100%"
       height="100%"
       transform="translate(6)" />
    <use
       style="fill:#696969;stroke:#696969"
       x="122.40521"
       xlink:href="#m844fba8b26"
       y="183.24327"
       id="use515"
       width="100%"
       height="100%" />
    <use
       style="fill:#696969;stroke:#696969"
       x="164.23502"
       xlink:href="#m844fba8b26"
       y="182.56734"
       id="use517"
       width="100%"
       height="100%"
       transform="translate(-6)" />
    <use
       style="fill:#696969;stroke:#696969"
       x="206.06482"
       xlink:href="#m844fba8b26"
       y="235.4164"
       id="use519"
       width="100%"
       height="100%"
       transform="translate(6)" />
    <use
       style="fill:#696969;stroke:#696969"
       x="247.89462"
       xlink:href="#m844fba8b26"
       y="232.91502"
       id="use521"
       width="100%"
       height="100%" />
    <use
       style="fill:#696969;stroke:#696969"
       x="289.72443"
       xlink:href="#m844fba8b26"
       y="223.72475"
       id="use523"
       width="100%"
       height="100%"
       transform="translate(-6)" />
    <g
       id="patch_9">
      <path
         d="M 59.660508,357.77144 V 67.175437"
         style="fill:none;stroke:#cccccc;stroke-linecap:square;stroke-linejoin:miter"
         id="path529" />
    </g>
    <g
       id="patch_10">
      <path
         d="M 59.660508,357.77144 H 310.63933"
         style="fill:none;stroke:#cccccc;stroke-linecap:square;stroke-linejoin:miter"
         id="path532" />
    </g>
    <g
       id="PathCollection_1"
       transform="translate(6)">
      <defs
         id="defs536">
        <path
           d="M 0,2.5 C 0.663008,2.5 1.29895,2.236584 1.767767,1.767767 2.236584,1.29895 2.5,0.663008 2.5,0 2.5,-0.663008 2.236584,-1.29895 1.767767,-1.767767 1.29895,-2.236584 0.663008,-2.5 0,-2.5 c -0.663008,0 -1.29895,0.263416 -1.767767,0.732233 C -2.236584,-1.29895 -2.5,-0.663008 -2.5,0 c 0,0.663008 0.263416,1.29895 0.732233,1.767767 C -1.29895,2.236584 -0.663008,2.5 0,2.5 Z"
           id="m475cf0027b" />
      </defs>
      <g
         clip-path="url(#pa494b15afb)"
         id="g540">
        <use
           style="fill:#ff4500;fill-opacity:0.9"
           x="80.575409"
           xlink:href="#m475cf0027b"
           y="102.92414"
           id="use538"
           width="100%"
           height="100%" />
      </g>
    </g>
    <g
       id="PathCollection_2">
      <g
         clip-path="url(#pa494b15afb)"
         id="g545">
        <use
           style="fill:#ff4500;fill-opacity:0.9"
           x="122.40521"
           xlink:href="#m475cf0027b"
           y="133.70718"
           id="use543"
           width="100%"
           height="100%" />
      </g>
    </g>
    <g
       id="PathCollection_3"
       transform="translate(-6)">
      <g
         clip-path="url(#pa494b15afb)"
         id="g550">
        <use
           style="fill:#ff4500;fill-opacity:0.9"
           x="164.23502"
           xlink:href="#m475cf0027b"
           y="107.96798"
           id="use548"
           width="100%"
           height="100%" />
      </g>
    </g>
    <g
       id="PathCollection_4"
       transform="translate(6)">
      <g
         clip-path="url(#pa494b15afb)"
         id="g555">
        <use
           style="fill:#ff4500;fill-opacity:0.9"
           x="206.06482"
           xlink:href="#m475cf0027b"
           y="135.22012"
           id="use553"
           width="100%"
           height="100%" />
      </g>
    </g>
    <g
       id="PathCollection_5">
      <g
         clip-path="url(#pa494b15afb)"
         id="g560">
        <use
           style="fill:#ff4500;fill-opacity:0.9"
           x="247.89462"
           xlink:href="#m475cf0027b"
           y="81.013344"
           id="use558"
           width="100%"
           height="100%" />
      </g>
    </g>
    <g
       id="PathCollection_6"
       transform="translate(-6)">
      <g
         clip-path="url(#pa494b15afb)"
         id="g565">
        <use
           style="fill:#ff4500;fill-opacity:0.9"
           x="289.72443"
           xlink:href="#m475cf0027b"
           y="83.354401"
           id="use563"
           width="100%"
           height="100%" />
      </g>
    </g>
    <g
       id="PathCollection_7"
       transform="translate(6)">
      <defs
         id="defs569">
        <path
           d="M 0,2.5 C 0.663008,2.5 1.29895,2.236584 1.767767,1.767767 2.236584,1.29895 2.5,0.663008 2.5,0 2.5,-0.663008 2.236584,-1.29895 1.767767,-1.767767 1.29895,-2.236584 0.663008,-2.5 0,-2.5 c -0.663008,0 -1.29895,0.263416 -1.767767,0.732233 C -2.236584,-1.29895 -2.5,-0.663008 -2.5,0 c 0,0.663008 0.263416,1.29895 0.732233,1.767767 C -1.29895,2.236584 -0.663008,2.5 0,2.5 Z"
           id="me1850953da" />
      </defs>
      <g
         clip-path="url(#pa494b15afb)"
         id="g573">
        <use
           style="fill:#00ced1;fill-opacity:0.9"
           x="80.575409"
           xlink:href="#me1850953da"
           y="296.9928"
           id="use571"
           width="100%"
           height="100%" />
      </g>
    </g>
    <g
       id="PathCollection_8">
      <g
         clip-path="url(#pa494b15afb)"
         id="g578">
        <use
           style="fill:#00ced1;fill-opacity:0.9"
           x="122.40521"
           xlink:href="#me1850953da"
           y="259.26706"
           id="use576"
           width="100%"
           height="100%" />
      </g>
    </g>
    <g
       id="PathCollection_9"
       transform="translate(-6)">
      <g
         clip-path="url(#pa494b15afb)"
         id="g583">
        <use
           style="fill:#00ced1;fill-opacity:0.9"
           x="164.23502"
           xlink:href="#me1850953da"
           y="268.94205"
           id="use581"
           width="100%"
           height="100%" />
      </g>
    </g>
    <g
       id="PathCollection_10"
       transform="translate(6)">
      <g
         clip-path="url(#pa494b15afb)"
         id="g588">
        <use
           style="fill:#00ced1;fill-opacity:0.9"
           x="206.06482"
           xlink:href="#me1850953da"
           y="329.44742"
           id="use586"
           width="100%"
           height="100%" />
      </g>
    </g>
    <g
       id="PathCollection_11">
      <g
         clip-path="url(#pa494b15afb)"
         id="g593">
        <use
           style="fill:#00ced1;fill-opacity:0.9"
           x="247.89462"
           xlink:href="#me1850953da"
           y="326.9502"
           id="use591"
           width="100%"
           height="100%" />
      </g>
    </g>
    <g
       id="PathCollection_12"
       transform="translate(-6)">
      <g
         clip-path="url(#pa494b15afb)"
         id="g598">
        <use
           style="fill:#00ced1;fill-opacity:0.9"
           x="289.72443"
           xlink:href="#me1850953da"
           y="325.34286"
           id="use596"
           width="100%"
           height="100%" />
      </g>
    </g>
  </g>
  <defs
     id="defs734">
    <clipPath
       id="pa494b15afb">
      <rect
         height="290.596"
         width="250.978819"
         x="59.660508"
         y="67.175437"
         id="rect731" />
    </clipPath>
  </defs>
</svg>
