<?xml version="1.0"?><svg xmlns="http://www.w3.org/2000/svg" xmlns:xlink="http://www.w3.org/1999/xlink" viewBox="8.69 25.22 367.87 654.81" preserveAspectRatio="xMidYMid" width="100%" height="100%"><clipPath id="102"><rect x="0.5" y="0.5" width="1079" height="719" /></clipPath><g id="drawing"><rect x="8.69" y="25.22" width="100%" height="100%" fill="rgb(255, 255, 255)" /><g id="page" clip-path="url(#102)"><g><text xml:space="preserve" text-anchor="start" text-rendering="geometricPrecision"><tspan x="56.66" y="579.49" font-family="Arial" font-size="10" fill="rgb(0, 0, 0)">O</tspan></text></g><g><text xml:space="preserve" text-anchor="start" text-rendering="geometricPrecision"><tspan x="101.86" y="553.85" font-family="Arial" font-size="10" fill="rgb(0, 0, 0)">O</tspan></text></g><g><text xml:space="preserve" text-anchor="end" text-rendering="geometricPrecision"><tspan x="23.64" y="33.56" font-family="Arial" font-size="10" fill="rgb(0, 0, 0)">HO</tspan></text></g><g><text xml:space="preserve" text-anchor="start" text-rendering="geometricPrecision"><tspan x="146.27" y="632.13" font-family="Arial" font-size="10" fill="rgb(0, 0, 0)">OH</tspan></text></g><g id="Solid"><path d="M376.55 447.87 L376.55 447.87 L376.55 448.37 L376.55 448.87 L346.83 448.64 L346.55 448.14 L346.27 447.64 Z" stroke="rgb(0, 0, 0)" stroke-width="0" fill-rule="evenodd" stroke-linejoin="miter" fill="rgb(0, 0, 0)" shape-rendering="geometricPrecision" /></g><g id="Solid"><path d="M346.27 447.64 L346.27 447.64 L346.55 448.14 L346.83 448.64 L331.64 474.5 L331.36 474 L331.08 473.5 Z" stroke="rgb(0, 0, 0)" stroke-width="0" fill-rule="evenodd" stroke-linejoin="miter" fill="rgb(0, 0, 0)" shape-rendering="geometricPrecision" /></g><g id="Solid"><path d="M331.08 473.5 L331.08 473.5 L331.36 474 L331.64 474.5 L301.64 474.27 L301.36 473.77 L301.08 473.27 Z" stroke="rgb(0, 0, 0)" stroke-width="0" fill-rule="evenodd" stroke-linejoin="miter" fill="rgb(0, 0, 0)" shape-rendering="geometricPrecision" /></g><g id="Solid"><path d="M301.08 473.27 L301.08 473.27 L301.36 473.77 L301.64 474.27 L286.44 500.14 L286.16 499.64 L285.88 499.14 Z" stroke="rgb(0, 0, 0)" stroke-width="0" fill-rule="evenodd" stroke-linejoin="miter" fill="rgb(0, 0, 0)" shape-rendering="geometricPrecision" /></g><g id="Solid"><path d="M285.88 499.14 L285.88 499.14 L286.16 499.64 L286.44 500.14 L256.44 499.91 L256.16 499.41 L255.88 498.91 Z" stroke="rgb(0, 0, 0)" stroke-width="0" fill-rule="evenodd" stroke-linejoin="miter" fill="rgb(0, 0, 0)" shape-rendering="geometricPrecision" /></g><g id="Solid"><path d="M255.88 498.91 L255.88 498.91 L256.16 499.41 L256.44 499.91 L241.24 525.77 L240.96 525.27 L240.68 524.77 Z" stroke="rgb(0, 0, 0)" stroke-width="0" fill-rule="evenodd" stroke-linejoin="miter" fill="rgb(0, 0, 0)" shape-rendering="geometricPrecision" /></g><g id="Solid"><path d="M240.68 524.77 L240.68 524.77 L240.96 525.27 L241.24 525.77 L211.24 525.55 L210.96 525.05 L210.68 524.55 Z" stroke="rgb(0, 0, 0)" stroke-width="0" fill-rule="evenodd" stroke-linejoin="miter" fill="rgb(0, 0, 0)" shape-rendering="geometricPrecision" /></g><g id="Solid"><path d="M210.68 524.55 L210.68 524.55 L210.96 525.05 L211.24 525.55 L196.05 551.41 L195.77 550.91 L195.49 550.41 Z" stroke="rgb(0, 0, 0)" stroke-width="0" fill-rule="evenodd" stroke-linejoin="miter" fill="rgb(0, 0, 0)" shape-rendering="geometricPrecision" /></g><g id="Solid"><path d="M195.49 550.41 L195.49 550.41 L195.77 550.91 L196.05 551.41 L166.05 551.18 L165.77 550.68 L165.49 550.18 Z" stroke="rgb(0, 0, 0)" stroke-width="0" fill-rule="evenodd" stroke-linejoin="miter" fill="rgb(0, 0, 0)" shape-rendering="geometricPrecision" /></g><g id="Solid"><path d="M165.49 550.18 L165.49 550.18 L165.77 550.68 L166.05 551.18 L150.85 577.05 L150.57 576.55 L150.29 576.05 Z" stroke="rgb(0, 0, 0)" stroke-width="0" fill-rule="evenodd" stroke-linejoin="miter" fill="rgb(0, 0, 0)" shape-rendering="geometricPrecision" /></g><g id="Solid"><path d="M150.29 576.05 L150.29 576.05 L150.57 576.55 L150.85 577.05 L120.85 576.82 L120.57 576.32 L120.29 575.82 Z" stroke="rgb(0, 0, 0)" stroke-width="0" fill-rule="evenodd" stroke-linejoin="miter" fill="rgb(0, 0, 0)" shape-rendering="geometricPrecision" /></g><g id="Solid"><path d="M120.29 575.82 L120.29 575.82 L120.57 576.32 L120.85 576.82 L105.95 602.18 L105.37 602.18 L105.09 601.68 Z" stroke="rgb(0, 0, 0)" stroke-width="0" fill-rule="evenodd" stroke-linejoin="miter" fill="rgb(0, 0, 0)" shape-rendering="geometricPrecision" /></g><g id="Solid"><path d="M105.08 602.68 L105.08 602.68 L105.37 602.18 L105.95 602.18 L120.46 627.78 L120.17 628.28 L119.59 628.28 Z" stroke="rgb(0, 0, 0)" stroke-width="0" fill-rule="evenodd" stroke-linejoin="miter" fill="rgb(0, 0, 0)" shape-rendering="geometricPrecision" /><line x1="103.26" y1="605.77" x2="116.01" y2="628.25" stroke="rgb(0, 0, 0)" stroke-width="1" shape-rendering="auto" /></g><g id="Solid"><path d="M119.59 628.28 L119.59 628.28 L120.17 628.28 L120.45 628.78 L105.25 654.64 L104.97 654.14 L104.69 653.64 Z" stroke="rgb(0, 0, 0)" stroke-width="0" fill-rule="evenodd" stroke-linejoin="miter" fill="rgb(0, 0, 0)" shape-rendering="geometricPrecision" /></g><g id="Solid"><path d="M104.69 653.64 L104.69 653.64 L104.97 654.14 L105.25 654.64 L75.26 654.42 L74.98 653.92 L75.27 653.42 Z" stroke="rgb(0, 0, 0)" stroke-width="0" fill-rule="evenodd" stroke-linejoin="miter" fill="rgb(0, 0, 0)" shape-rendering="geometricPrecision" /><line x1="102.92" y1="650.53" x2="77.08" y2="650.34" stroke="rgb(0, 0, 0)" stroke-width="1" shape-rendering="auto" /></g><g id="Solid"><path d="M75.27 653.42 L75.27 653.42 L74.98 653.92 L74.4 653.92 L59.59 627.82 L60.17 627.82 L60.75 627.82 Z" stroke="rgb(0, 0, 0)" stroke-width="0" fill-rule="evenodd" stroke-linejoin="miter" fill="rgb(0, 0, 0)" shape-rendering="geometricPrecision" /></g><g id="Solid"><path d="M60.75 627.82 L60.75 627.82 L60.17 627.82 L59.59 627.82 L74.79 601.96 L75.37 601.96 L75.65 602.46 Z" stroke="rgb(0, 0, 0)" stroke-width="0" fill-rule="evenodd" stroke-linejoin="miter" fill="rgb(0, 0, 0)" shape-rendering="geometricPrecision" /><line x1="64.33" y1="627.85" x2="77.42" y2="605.57" stroke="rgb(0, 0, 0)" stroke-width="1" shape-rendering="auto" /></g><g id="Solid"><path d="M105.09 601.68 L105.09 601.68 L105.37 602.18 L105.08 602.68 L75.65 602.46 L75.37 601.96 L75.66 601.46 Z" stroke="rgb(0, 0, 0)" stroke-width="0" fill-rule="evenodd" stroke-linejoin="miter" fill="rgb(0, 0, 0)" shape-rendering="geometricPrecision" /></g><g id="Solid"><path d="M75.66 601.46 L75.66 601.46 L75.37 601.96 L74.79 601.96 L63.13 581.39 L63.56 581.14 L64 580.89 Z" stroke="rgb(0, 0, 0)" stroke-width="0" fill-rule="evenodd" stroke-linejoin="miter" fill="rgb(0, 0, 0)" shape-rendering="geometricPrecision" /></g><g id="Solid"><path d="M63.93 571.13 L63.93 571.13 L63.5 570.88 L63.07 570.62 L75.19 550 L75.77 550 L76.35 550 Z" stroke="rgb(0, 0, 0)" stroke-width="0" fill-rule="evenodd" stroke-linejoin="miter" fill="rgb(0, 0, 0)" shape-rendering="geometricPrecision" /></g><g id="Solid"><line x1="75.78" y1="548.2" x2="100.41" y2="548.38" stroke="rgb(0, 0, 0)" stroke-width="1" shape-rendering="auto" /><path d="M75.59 551.3 L75.59 551.3 L75 552.29 L100.38 552.48 L100.39 551.48 Z" stroke="rgb(0, 0, 0)" stroke-width="0" fill-rule="evenodd" stroke-linejoin="miter" fill="rgb(0, 0, 0)" shape-rendering="geometricPrecision" /><path d="M75.04 547.69 L75.04 547.69 L75.61 548.7 L100.41 548.88 L100.42 547.88 Z" stroke="rgb(0, 0, 0)" stroke-width="0" fill-rule="evenodd" stroke-linejoin="miter" fill="rgb(0, 0, 0)" shape-rendering="geometricPrecision" /></g><g id="Solid"><path d="M76.35 550 L76.35 550 L75.77 550 L75.19 550 L60.39 523.9 L60.97 523.9 L61.55 523.9 Z" stroke="rgb(0, 0, 0)" stroke-width="0" fill-rule="evenodd" stroke-linejoin="miter" fill="rgb(0, 0, 0)" shape-rendering="geometricPrecision" /></g><g id="Solid"><path d="M61.55 523.9 L61.55 523.9 L60.97 523.9 L60.39 523.9 L75.59 498.04 L76.17 498.04 L76.75 498.04 Z" stroke="rgb(0, 0, 0)" stroke-width="0" fill-rule="evenodd" stroke-linejoin="miter" fill="rgb(0, 0, 0)" shape-rendering="geometricPrecision" /><line x1="65.13" y1="523.93" x2="79.27" y2="499.86" stroke="rgb(0, 0, 0)" stroke-width="1" shape-rendering="auto" /></g><g id="Solid"><path d="M76.75 498.04 L76.75 498.04 L76.17 498.04 L75.59 498.04 L60.78 471.94 L61.36 471.94 L61.94 471.94 Z" stroke="rgb(0, 0, 0)" stroke-width="0" fill-rule="evenodd" stroke-linejoin="miter" fill="rgb(0, 0, 0)" shape-rendering="geometricPrecision" /></g><g id="Solid"><path d="M61.94 471.94 L61.94 471.94 L61.36 471.94 L60.78 471.94 L75.98 446.08 L76.56 446.08 L77.14 446.08 Z" stroke="rgb(0, 0, 0)" stroke-width="0" fill-rule="evenodd" stroke-linejoin="miter" fill="rgb(0, 0, 0)" shape-rendering="geometricPrecision" /><line x1="65.52" y1="471.97" x2="79.66" y2="447.9" stroke="rgb(0, 0, 0)" stroke-width="1" shape-rendering="auto" /></g><g id="Solid"><path d="M77.14 446.08 L77.14 446.08 L76.56 446.08 L75.98 446.08 L61.18 419.98 L61.76 419.98 L62.34 419.98 Z" stroke="rgb(0, 0, 0)" stroke-width="0" fill-rule="evenodd" stroke-linejoin="miter" fill="rgb(0, 0, 0)" shape-rendering="geometricPrecision" /></g><g id="Solid"><path d="M62.34 419.98 L62.34 419.98 L61.76 419.98 L61.18 419.98 L76.38 394.12 L76.96 394.12 L77.54 394.12 Z" stroke="rgb(0, 0, 0)" stroke-width="0" fill-rule="evenodd" stroke-linejoin="miter" fill="rgb(0, 0, 0)" shape-rendering="geometricPrecision" /><line x1="65.92" y1="420.01" x2="80.06" y2="395.94" stroke="rgb(0, 0, 0)" stroke-width="1" shape-rendering="auto" /></g><g id="Solid"><path d="M77.54 394.12 L77.54 394.12 L76.96 394.12 L76.38 394.12 L61.58 368.02 L62.16 368.02 L62.74 368.02 Z" stroke="rgb(0, 0, 0)" stroke-width="0" fill-rule="evenodd" stroke-linejoin="miter" fill="rgb(0, 0, 0)" shape-rendering="geometricPrecision" /></g><g id="Solid"><path d="M62.74 368.02 L62.74 368.02 L62.16 368.02 L61.58 368.02 L76.78 342.16 L77.36 342.16 L77.94 342.16 Z" stroke="rgb(0, 0, 0)" stroke-width="0" fill-rule="evenodd" stroke-linejoin="miter" fill="rgb(0, 0, 0)" shape-rendering="geometricPrecision" /><line x1="66.32" y1="368.05" x2="80.46" y2="343.98" stroke="rgb(0, 0, 0)" stroke-width="1" shape-rendering="auto" /></g><g id="Solid"><path d="M77.94 342.16 L77.94 342.16 L77.36 342.16 L76.78 342.16 L61.97 316.06 L62.55 316.06 L63.13 316.06 Z" stroke="rgb(0, 0, 0)" stroke-width="0" fill-rule="evenodd" stroke-linejoin="miter" fill="rgb(0, 0, 0)" shape-rendering="geometricPrecision" /></g><g id="Solid"><path d="M63.13 316.06 L63.13 316.06 L62.55 316.06 L61.97 316.06 L77.17 290.2 L77.75 290.2 L78.33 290.2 Z" stroke="rgb(0, 0, 0)" stroke-width="0" fill-rule="evenodd" stroke-linejoin="miter" fill="rgb(0, 0, 0)" shape-rendering="geometricPrecision" /><line x1="66.71" y1="316.09" x2="80.85" y2="292.02" stroke="rgb(0, 0, 0)" stroke-width="1" shape-rendering="auto" /></g><g id="Solid"><path d="M78.33 290.2 L78.33 290.2 L77.75 290.2 L77.17 290.2 L62.37 264.1 L62.95 264.1 L63.53 264.1 Z" stroke="rgb(0, 0, 0)" stroke-width="0" fill-rule="evenodd" stroke-linejoin="miter" fill="rgb(0, 0, 0)" shape-rendering="geometricPrecision" /></g><g id="Solid"><path d="M63.53 264.1 L63.53 264.1 L62.95 264.1 L62.37 264.1 L77.57 238.24 L78.15 238.24 L78.73 238.24 Z" stroke="rgb(0, 0, 0)" stroke-width="0" fill-rule="evenodd" stroke-linejoin="miter" fill="rgb(0, 0, 0)" shape-rendering="geometricPrecision" /><line x1="67.11" y1="264.13" x2="81.25" y2="240.06" stroke="rgb(0, 0, 0)" stroke-width="1" shape-rendering="auto" /></g><g id="Solid"><path d="M78.73 238.24 L78.73 238.24 L78.15 238.24 L77.57 238.24 L62.77 212.14 L63.35 212.14 L63.93 212.14 Z" stroke="rgb(0, 0, 0)" stroke-width="0" fill-rule="evenodd" stroke-linejoin="miter" fill="rgb(0, 0, 0)" shape-rendering="geometricPrecision" /></g><g id="Solid"><path d="M63.93 212.14 L63.93 212.14 L63.35 212.14 L62.77 212.14 L77.97 186.28 L78.55 186.28 L79.13 186.28 Z" stroke="rgb(0, 0, 0)" stroke-width="0" fill-rule="evenodd" stroke-linejoin="miter" fill="rgb(0, 0, 0)" shape-rendering="geometricPrecision" /><line x1="67.51" y1="212.17" x2="81.65" y2="188.1" stroke="rgb(0, 0, 0)" stroke-width="1" shape-rendering="auto" /></g><g id="Solid"><path d="M79.13 186.28 L79.13 186.28 L78.55 186.28 L77.97 186.28 L63.16 160.18 L63.74 160.18 L64.32 160.18 Z" stroke="rgb(0, 0, 0)" stroke-width="0" fill-rule="evenodd" stroke-linejoin="miter" fill="rgb(0, 0, 0)" shape-rendering="geometricPrecision" /></g><g id="Solid"><path d="M64.32 160.18 L64.32 160.18 L63.74 160.18 L63.16 160.18 L78.36 134.32 L78.94 134.32 L79.52 134.32 Z" stroke="rgb(0, 0, 0)" stroke-width="0" fill-rule="evenodd" stroke-linejoin="miter" fill="rgb(0, 0, 0)" shape-rendering="geometricPrecision" /><line x1="67.9" y1="160.21" x2="82.04" y2="136.14" stroke="rgb(0, 0, 0)" stroke-width="1" shape-rendering="auto" /></g><g id="Solid"><path d="M79.52 134.32 L79.52 134.32 L78.94 134.32 L78.36 134.32 L63.85 108.72 L64.14 108.22 L64.72 108.22 Z" stroke="rgb(0, 0, 0)" stroke-width="0" fill-rule="evenodd" stroke-linejoin="miter" fill="rgb(0, 0, 0)" shape-rendering="geometricPrecision" /></g><g id="Solid"><path d="M64.72 108.22 L64.72 108.22 L64.14 108.22 L63.86 107.72 L78.76 82.35 L79.34 82.35 L79.92 82.35 Z" stroke="rgb(0, 0, 0)" stroke-width="0" fill-rule="evenodd" stroke-linejoin="miter" fill="rgb(0, 0, 0)" shape-rendering="geometricPrecision" /><line x1="62.09" y1="104.6" x2="75.18" y2="82.32" stroke="rgb(0, 0, 0)" stroke-width="1" shape-rendering="auto" /></g><g id="Solid"><path d="M79.92 82.35 L79.92 82.35 L79.34 82.35 L78.76 82.35 L64.25 56.76 L64.54 56.26 L65.12 56.26 Z" stroke="rgb(0, 0, 0)" stroke-width="0" fill-rule="evenodd" stroke-linejoin="miter" fill="rgb(0, 0, 0)" shape-rendering="geometricPrecision" /></g><g id="Solid"><path d="M64.26 55.76 L64.26 55.76 L64.54 56.26 L64.25 56.76 L34.82 56.53 L34.54 56.03 L34.83 55.53 Z" stroke="rgb(0, 0, 0)" stroke-width="0" fill-rule="evenodd" stroke-linejoin="miter" fill="rgb(0, 0, 0)" shape-rendering="geometricPrecision" /><line x1="62.43" y1="59.84" x2="36.59" y2="59.65" stroke="rgb(0, 0, 0)" stroke-width="1" shape-rendering="auto" /></g><g id="Solid"><path d="M33.96 56.03 L33.96 56.03 L34.54 56.03 L34.82 56.53 L19.92 81.9 L19.34 81.9 L18.76 81.9 Z" stroke="rgb(0, 0, 0)" stroke-width="0" fill-rule="evenodd" stroke-linejoin="miter" fill="rgb(0, 0, 0)" shape-rendering="geometricPrecision" /></g><g id="Solid"><path d="M18.76 81.9 L18.76 81.9 L19.34 81.9 L19.92 81.9 L34.43 107.49 L34.14 107.99 L33.85 108.49 Z" stroke="rgb(0, 0, 0)" stroke-width="0" fill-rule="evenodd" stroke-linejoin="miter" fill="rgb(0, 0, 0)" shape-rendering="geometricPrecision" /><line x1="23.5" y1="81.93" x2="36.25" y2="104.41" stroke="rgb(0, 0, 0)" stroke-width="1" shape-rendering="auto" /></g><g id="Solid"><path d="M63.86 107.72 L63.86 107.72 L64.14 108.22 L63.85 108.72 L33.85 108.49 L34.14 107.99 L34.43 107.49 Z" stroke="rgb(0, 0, 0)" stroke-width="0" fill-rule="evenodd" stroke-linejoin="miter" fill="rgb(0, 0, 0)" shape-rendering="geometricPrecision" /></g><g id="Solid"><path d="M34.83 55.53 L34.83 55.53 L34.54 56.03 L33.96 56.03 L22.25 35.39 L22.69 35.14 L23.12 34.89 Z" stroke="rgb(0, 0, 0)" stroke-width="0" fill-rule="evenodd" stroke-linejoin="miter" fill="rgb(0, 0, 0)" shape-rendering="geometricPrecision" /></g><g id="Solid"><path d="M65.12 56.26 L65.12 56.26 L64.54 56.26 L64.26 55.76 L79.31 30.14 L79.74 30.39 L80.17 30.64 Z" stroke="rgb(0, 0, 0)" stroke-width="0" fill-rule="evenodd" stroke-linejoin="miter" fill="rgb(0, 0, 0)" shape-rendering="geometricPrecision" /></g><g id="Solid"><path d="M74.4 653.92 L74.4 653.92 L74.98 653.92 L75.26 654.42 L60.21 680.03 L59.78 679.78 L59.35 679.53 Z" stroke="rgb(0, 0, 0)" stroke-width="0" fill-rule="evenodd" stroke-linejoin="miter" fill="rgb(0, 0, 0)" shape-rendering="geometricPrecision" /></g><g id="Solid"><path d="M120.45 628.78 L120.45 628.78 L120.17 628.28 L120.46 627.78 L144.8 627.97 L144.8 628.47 L144.8 628.97 Z" stroke="rgb(0, 0, 0)" stroke-width="0" fill-rule="evenodd" stroke-linejoin="miter" fill="rgb(0, 0, 0)" shape-rendering="geometricPrecision" /></g></g></g></svg>